<svg xmlns="http://www.w3.org/2000/svg" xmlns:xlink="http://www.w3.org/1999/xlink" width="500" zoomAndPan="magnify" viewBox="0 0 375 374.999991" height="500" preserveAspectRatio="xMidYMid meet" version="1.0"><defs><g/><clipPath id="585ee5ed78"><path d="M 24.535156 138.484375 L 110.785156 138.484375 L 110.785156 218.734375 L 24.535156 218.734375 Z M 24.535156 138.484375 " clip-rule="nonzero"/></clipPath><clipPath id="e9c49b72b9"><path d="M 225.648438 138.484375 L 284.898438 138.484375 L 284.898438 223.234375 L 225.648438 223.234375 Z M 225.648438 138.484375 " clip-rule="nonzero"/></clipPath></defs><g clip-path="url(#585ee5ed78)"><path fill="#0f2c67" d="M 63.246094 138.523438 C 51.507812 138.523438 41.644531 142.414062 34.726562 149.785156 C 28.058594 156.882812 24.53125 166.722656 24.53125 178.234375 L 24.53125 178.445312 C 24.53125 189.992188 28.089844 199.9375 34.824219 207.203125 C 41.855469 214.785156 51.808594 218.796875 63.609375 218.796875 L 91.015625 218.796875 C 92.734375 218.796875 94.128906 217.402344 94.128906 215.683594 L 94.128906 177.753906 C 94.128906 176.035156 92.734375 174.640625 91.015625 174.640625 L 65.734375 174.640625 C 63.949219 174.640625 62.5 176.089844 62.5 177.875 L 62.5 185.546875 C 62.5 187.332031 63.949219 188.777344 65.734375 188.777344 L 70.03125 188.777344 L 70.03125 191.589844 C 70.03125 193.308594 68.640625 194.703125 66.921875 194.703125 L 62.976562 194.703125 C 53.691406 194.703125 48.371094 188.894531 48.371094 178.765625 L 48.371094 178.554688 C 48.371094 169.65625 52.828125 163.699219 60.292969 162.617188 C 61.09375 162.542969 61.898438 162.484375 62.691406 162.433594 L 62.792969 162.433594 C 62.835938 162.429688 62.878906 162.429688 62.921875 162.429688 L 62.988281 162.429688 L 64.886719 162.375 L 84.265625 162.375 C 94.125 162.375 103.042969 156.535156 106.984375 147.5 L 110.902344 138.523438 L 63.246094 138.523438 " fill-opacity="1" fill-rule="nonzero"/></g><g fill="#0f2c67" fill-opacity="1"><g transform="translate(93.832227, 220.37725)"><g><path d="M 33.8125 -40.1875 L 33.8125 -14.28125 C 33.8125 -9.34375 32.476562 -5.601562 29.8125 -3.0625 C 27.15625 -0.53125 23.257812 0.734375 18.125 0.734375 C 12.988281 0.734375 9.085938 -0.53125 6.421875 -3.0625 C 3.765625 -5.601562 2.4375 -9.34375 2.4375 -14.28125 L 2.4375 -40.1875 L 11.59375 -40.1875 L 11.59375 -16.953125 C 11.59375 -13.703125 12.101562 -11.441406 13.125 -10.171875 C 14.15625 -8.910156 15.820312 -8.28125 18.125 -8.28125 C 20.425781 -8.28125 22.085938 -8.910156 23.109375 -10.171875 C 24.140625 -11.441406 24.65625 -13.703125 24.65625 -16.953125 L 24.65625 -40.1875 Z M 33.8125 -40.1875 "/></g></g></g><g fill="#0f2c67" fill-opacity="1"><g transform="translate(130.072652, 220.37725)"><g><path d="M 2.921875 -40.1875 L 15.390625 -40.1875 C 19.160156 -40.1875 22.164062 -39.382812 24.40625 -37.78125 C 26.644531 -36.175781 27.765625 -33.570312 27.765625 -29.96875 C 27.765625 -25.9375 26.09375 -23.0625 22.75 -21.34375 C 28.46875 -20.332031 31.328125 -16.953125 31.328125 -11.203125 C 31.328125 -7.828125 30.15625 -5.113281 27.8125 -3.0625 C 25.476562 -1.019531 22.265625 0 18.171875 0 L 2.921875 0 Z M 12.078125 -24.453125 L 12.8125 -24.453125 C 14.851562 -24.453125 16.378906 -24.804688 17.390625 -25.515625 C 18.398438 -26.234375 18.90625 -27.40625 18.90625 -29.03125 C 18.90625 -31.757812 16.875 -33.125 12.8125 -33.125 L 12.078125 -33.125 Z M 12.078125 -7.0625 L 14.953125 -7.0625 C 19.441406 -7.0625 21.6875 -8.554688 21.6875 -11.546875 C 21.6875 -13.328125 21.125 -14.609375 20 -15.390625 C 18.875 -16.171875 17.191406 -16.5625 14.953125 -16.5625 L 12.078125 -16.5625 Z M 12.078125 -7.0625 "/></g></g></g><g fill="#0f2c67" fill-opacity="1"><g transform="translate(162.513686, 220.37725)"><g><path d="M 25.921875 -40.1875 L 25.921875 -32.15625 L 12.078125 -32.15625 L 12.078125 -24.171875 L 25.328125 -24.171875 L 25.328125 -16.125 L 12.078125 -16.125 L 12.078125 -8.03125 L 25.921875 -8.03125 L 25.921875 0 L 2.921875 0 L 2.921875 -40.1875 Z M 25.921875 -40.1875 "/></g></g></g><g fill="#0f2c67" fill-opacity="1"><g transform="translate(190.765638, 220.37725)"><g><path d="M 2.921875 -40.1875 L 17.296875 -40.1875 C 21.160156 -40.1875 24.3125 -39.15625 26.75 -37.09375 C 29.1875 -35.03125 30.40625 -32.082031 30.40625 -28.25 C 30.40625 -25.300781 29.664062 -22.828125 28.1875 -20.828125 C 26.707031 -18.828125 24.703125 -17.421875 22.171875 -16.609375 L 36 0 L 24.359375 0 L 12.078125 -15.875 L 12.078125 0 L 2.921875 0 Z M 12.078125 -22.359375 L 13.15625 -22.359375 C 14 -22.359375 14.710938 -22.375 15.296875 -22.40625 C 15.878906 -22.4375 16.546875 -22.550781 17.296875 -22.75 C 18.046875 -22.945312 18.644531 -23.222656 19.09375 -23.578125 C 19.550781 -23.929688 19.941406 -24.445312 20.265625 -25.125 C 20.585938 -25.8125 20.75 -26.640625 20.75 -27.609375 C 20.75 -28.585938 20.585938 -29.414062 20.265625 -30.09375 C 19.941406 -30.78125 19.550781 -31.300781 19.09375 -31.65625 C 18.644531 -32.019531 18.046875 -32.296875 17.296875 -32.484375 C 16.546875 -32.679688 15.878906 -32.796875 15.296875 -32.828125 C 14.710938 -32.867188 14 -32.890625 13.15625 -32.890625 L 12.078125 -32.890625 Z M 12.078125 -22.359375 "/></g></g></g><g fill="#a41e19" fill-opacity="1"><g transform="translate(280.450415, 218.715336)"><g><path d="M 1.953125 -21.390625 C 1.953125 -22.140625 1.972656 -22.695312 2.015625 -23.0625 C 2.066406 -23.4375 2.207031 -23.867188 2.4375 -24.359375 C 2.894531 -25.203125 4.160156 -25.625 6.234375 -25.625 C 7.796875 -25.625 8.898438 -25.347656 9.546875 -24.796875 C 10.097656 -24.335938 10.390625 -23.640625 10.421875 -22.703125 C 10.453125 -22.378906 10.46875 -21.910156 10.46875 -21.296875 L 10.46875 -4.234375 C 10.46875 -3.492188 10.441406 -2.9375 10.390625 -2.5625 C 10.347656 -2.1875 10.195312 -1.753906 9.9375 -1.265625 C 9.519531 -0.421875 8.269531 0 6.1875 0 C 4.144531 0 2.894531 -0.4375 2.4375 -1.3125 C 2.207031 -1.800781 2.066406 -2.222656 2.015625 -2.578125 C 1.972656 -2.941406 1.953125 -3.507812 1.953125 -4.28125 Z M 9.953125 -30.421875 C 9.710938 -29.953125 9.285156 -29.617188 8.671875 -29.421875 C 8.054688 -29.234375 7.234375 -29.140625 6.203125 -29.140625 C 5.179688 -29.140625 4.363281 -29.234375 3.75 -29.421875 C 3.132812 -29.617188 2.703125 -29.960938 2.453125 -30.453125 C 2.210938 -30.941406 2.066406 -31.367188 2.015625 -31.734375 C 1.972656 -32.109375 1.953125 -32.671875 1.953125 -33.421875 C 1.953125 -34.171875 1.972656 -34.726562 2.015625 -35.09375 C 2.066406 -35.46875 2.207031 -35.882812 2.4375 -36.34375 C 2.894531 -37.21875 4.160156 -37.65625 6.234375 -37.65625 C 8.285156 -37.65625 9.519531 -37.21875 9.9375 -36.34375 C 10.195312 -35.851562 10.347656 -35.421875 10.390625 -35.046875 C 10.441406 -34.679688 10.46875 -34.125 10.46875 -33.375 C 10.46875 -32.625 10.441406 -32.0625 10.390625 -31.6875 C 10.347656 -31.3125 10.203125 -30.890625 9.953125 -30.421875 Z M 9.953125 -30.421875 "/></g></g></g><g fill="#a41e19" fill-opacity="1"><g transform="translate(292.869726, 218.715336)"><g><path d="M 1.953125 -33.46875 C 1.953125 -34.21875 1.972656 -34.773438 2.015625 -35.140625 C 2.066406 -35.515625 2.207031 -35.945312 2.4375 -36.4375 C 2.894531 -37.3125 4.160156 -37.75 6.234375 -37.75 C 8.210938 -37.75 9.445312 -37.3125 9.9375 -36.4375 C 10.195312 -35.945312 10.347656 -35.507812 10.390625 -35.125 C 10.441406 -34.738281 10.46875 -34.171875 10.46875 -33.421875 L 10.46875 -10.859375 C 10.46875 -9.691406 10.566406 -8.953125 10.765625 -8.640625 C 10.960938 -8.335938 11.394531 -8.1875 12.0625 -8.1875 C 12.726562 -8.1875 13.171875 -8.160156 13.390625 -8.109375 C 13.617188 -8.054688 13.894531 -7.921875 14.21875 -7.703125 C 14.875 -7.273438 15.203125 -6.117188 15.203125 -4.234375 C 15.203125 -2.191406 14.875 -0.941406 14.21875 -0.484375 C 13.375 0.0976562 11.363281 0.195312 8.1875 -0.1875 C 5.6875 -0.519531 4.0625 -1.347656 3.3125 -2.671875 C 2.40625 -4.265625 1.953125 -6.800781 1.953125 -10.28125 Z M 1.953125 -33.46875 "/></g></g></g><g fill="#a41e19" fill-opacity="1"><g transform="translate(308.795667, 218.715336)"><g><path d="M 1.953125 -21.390625 C 1.953125 -22.140625 1.972656 -22.695312 2.015625 -23.0625 C 2.066406 -23.4375 2.207031 -23.867188 2.4375 -24.359375 C 2.894531 -25.203125 4.160156 -25.625 6.234375 -25.625 C 7.796875 -25.625 8.898438 -25.347656 9.546875 -24.796875 C 10.097656 -24.335938 10.390625 -23.640625 10.421875 -22.703125 C 10.453125 -22.378906 10.46875 -21.910156 10.46875 -21.296875 L 10.46875 -4.234375 C 10.46875 -3.492188 10.441406 -2.9375 10.390625 -2.5625 C 10.347656 -2.1875 10.195312 -1.753906 9.9375 -1.265625 C 9.519531 -0.421875 8.269531 0 6.1875 0 C 4.144531 0 2.894531 -0.4375 2.4375 -1.3125 C 2.207031 -1.800781 2.066406 -2.222656 2.015625 -2.578125 C 1.972656 -2.941406 1.953125 -3.507812 1.953125 -4.28125 Z M 9.953125 -30.421875 C 9.710938 -29.953125 9.285156 -29.617188 8.671875 -29.421875 C 8.054688 -29.234375 7.234375 -29.140625 6.203125 -29.140625 C 5.179688 -29.140625 4.363281 -29.234375 3.75 -29.421875 C 3.132812 -29.617188 2.703125 -29.960938 2.453125 -30.453125 C 2.210938 -30.941406 2.066406 -31.367188 2.015625 -31.734375 C 1.972656 -32.109375 1.953125 -32.671875 1.953125 -33.421875 C 1.953125 -34.171875 1.972656 -34.726562 2.015625 -35.09375 C 2.066406 -35.46875 2.207031 -35.882812 2.4375 -36.34375 C 2.894531 -37.21875 4.160156 -37.65625 6.234375 -37.65625 C 8.285156 -37.65625 9.519531 -37.21875 9.9375 -36.34375 C 10.195312 -35.851562 10.347656 -35.421875 10.390625 -35.046875 C 10.441406 -34.679688 10.46875 -34.125 10.46875 -33.375 C 10.46875 -32.625 10.441406 -32.0625 10.390625 -31.6875 C 10.347656 -31.3125 10.203125 -30.890625 9.953125 -30.421875 Z M 9.953125 -30.421875 "/></g></g></g><g fill="#a41e19" fill-opacity="1"><g transform="translate(321.214977, 218.715336)"><g><path d="M 16.171875 -25.578125 C 19.421875 -25.578125 22.125 -24.34375 24.28125 -21.875 C 26.445312 -19.40625 27.53125 -16.382812 27.53125 -12.8125 L 27.53125 -4.234375 C 27.53125 -3.492188 27.503906 -2.9375 27.453125 -2.5625 C 27.398438 -2.1875 27.242188 -1.753906 26.984375 -1.265625 C 26.566406 -0.421875 25.316406 0 23.234375 0 C 21.253906 0 20.019531 -0.421875 19.53125 -1.265625 C 19.269531 -1.753906 19.113281 -2.191406 19.0625 -2.578125 C 19.019531 -2.972656 19 -3.5625 19 -4.34375 L 19 -12.859375 C 19 -14.191406 18.625 -15.226562 17.875 -15.96875 C 17.132812 -16.71875 16.1875 -17.09375 15.03125 -17.09375 C 13.875 -17.09375 12.859375 -16.742188 11.984375 -16.046875 C 11.109375 -15.347656 10.601562 -14.5625 10.46875 -13.6875 L 10.46875 -4.234375 C 10.46875 -3.492188 10.441406 -2.9375 10.390625 -2.5625 C 10.347656 -2.1875 10.195312 -1.753906 9.9375 -1.265625 C 9.519531 -0.421875 8.269531 0 6.1875 0 C 4.144531 0 2.894531 -0.4375 2.4375 -1.3125 C 2.207031 -1.800781 2.066406 -2.222656 2.015625 -2.578125 C 1.972656 -2.941406 1.953125 -3.507812 1.953125 -4.28125 L 1.953125 -33.421875 C 1.953125 -34.171875 1.972656 -34.726562 2.015625 -35.09375 C 2.066406 -35.46875 2.207031 -35.882812 2.4375 -36.34375 C 2.894531 -37.21875 4.160156 -37.65625 6.234375 -37.65625 C 8.285156 -37.65625 9.519531 -37.21875 9.9375 -36.34375 C 10.195312 -35.851562 10.347656 -35.421875 10.390625 -35.046875 C 10.441406 -34.679688 10.46875 -34.125 10.46875 -33.375 L 10.46875 -22.609375 C 12.09375 -24.585938 13.992188 -25.578125 16.171875 -25.578125 Z M 16.171875 -25.578125 "/></g></g></g><g clip-path="url(#e9c49b72b9)"><path fill="#a41e19" d="M 284.5625 169.136719 C 284.578125 169.78125 284.570312 170.421875 284.546875 171.066406 C 284.519531 171.707031 284.476562 172.351562 284.410156 172.988281 C 284.347656 173.628906 284.261719 174.265625 284.15625 174.902344 C 284.054688 175.535156 283.929688 176.167969 283.785156 176.796875 C 283.644531 177.421875 283.480469 178.042969 283.300781 178.660156 C 283.121094 179.277344 282.917969 179.890625 282.699219 180.496094 C 282.480469 181.101562 282.246094 181.699219 281.988281 182.289062 C 281.734375 182.878906 281.460938 183.460938 281.167969 184.035156 C 280.875 184.605469 280.566406 185.171875 280.242188 185.726562 C 279.914062 186.28125 279.574219 186.824219 279.210938 187.355469 C 278.851562 187.890625 278.476562 188.414062 278.085938 188.921875 C 277.695312 189.433594 277.285156 189.929688 276.863281 190.414062 C 276.441406 190.902344 276.003906 191.371094 275.554688 191.832031 C 275.101562 192.289062 274.636719 192.734375 274.15625 193.164062 C 273.679688 193.59375 273.1875 194.007812 272.683594 194.40625 C 272.179688 194.804688 271.664062 195.1875 271.132812 195.554688 C 270.605469 195.921875 270.066406 196.273438 269.519531 196.609375 C 268.96875 196.941406 268.410156 197.261719 267.839844 197.558594 C 267.269531 197.859375 266.691406 198.140625 266.105469 198.40625 C 265.519531 198.671875 264.925781 198.917969 264.324219 199.144531 C 263.722656 199.371094 263.113281 199.582031 262.5 199.769531 C 261.886719 199.960938 261.265625 200.132812 260.640625 200.285156 C 260.015625 200.4375 259.386719 200.570312 258.753906 200.683594 C 258.121094 200.796875 257.484375 200.890625 256.84375 200.964844 C 256.207031 201.039062 255.566406 201.09375 254.921875 201.128906 C 254.28125 201.164062 253.636719 201.179688 252.996094 201.171875 C 252.351562 201.167969 251.707031 201.144531 251.066406 201.097656 C 250.425781 201.054688 249.785156 200.992188 249.148438 200.90625 C 248.507812 200.824219 247.875 200.71875 247.242188 200.597656 C 246.613281 200.472656 245.984375 200.332031 245.363281 200.171875 C 244.738281 200.007812 244.121094 199.828125 243.511719 199.628906 C 242.898438 199.429688 242.292969 199.210938 241.695312 198.976562 L 241.695312 215.0625 C 241.695312 215.589844 241.644531 216.109375 241.542969 216.625 C 241.4375 217.144531 241.289062 217.644531 241.085938 218.132812 C 240.882812 218.617188 240.636719 219.082031 240.34375 219.519531 C 240.050781 219.957031 239.71875 220.363281 239.347656 220.734375 C 238.972656 221.109375 238.570312 221.441406 238.128906 221.734375 C 237.691406 222.027344 237.230469 222.273438 236.742188 222.476562 C 236.257812 222.675781 235.753906 222.828125 235.238281 222.933594 C 234.722656 223.035156 234.199219 223.085938 233.671875 223.085938 C 233.144531 223.085938 232.625 223.035156 232.105469 222.933594 C 231.589844 222.828125 231.089844 222.675781 230.601562 222.476562 C 230.113281 222.273438 229.652344 222.027344 229.214844 221.734375 C 228.777344 221.441406 228.371094 221.109375 228 220.734375 C 227.625 220.363281 227.292969 219.957031 227 219.519531 C 226.707031 219.082031 226.460938 218.621094 226.257812 218.132812 C 226.058594 217.644531 225.90625 217.144531 225.800781 216.625 C 225.699219 216.109375 225.648438 215.589844 225.648438 215.0625 L 225.648438 184.449219 C 225.648438 183.925781 225.699219 183.402344 225.800781 182.886719 C 225.90625 182.371094 226.058594 181.867188 226.257812 181.382812 C 226.460938 180.894531 226.707031 180.433594 227 179.996094 C 227.292969 179.554688 227.625 179.152344 227.996094 178.777344 C 228.371094 178.40625 228.777344 178.074219 229.214844 177.78125 C 229.652344 177.488281 230.113281 177.242188 230.601562 177.039062 C 231.085938 176.839844 231.589844 176.6875 232.105469 176.582031 C 232.621094 176.480469 233.144531 176.429688 233.667969 176.429688 C 233.902344 176.429688 234.128906 176.441406 234.355469 176.460938 C 234.589844 176.441406 234.832031 176.429688 235.074219 176.429688 C 236.28125 176.425781 237.429688 176.683594 238.519531 177.203125 C 239.609375 177.71875 240.535156 178.449219 241.292969 179.386719 C 241.792969 180.011719 242.339844 180.59375 242.929688 181.136719 C 243.519531 181.675781 244.152344 182.164062 244.820312 182.605469 C 245.488281 183.046875 246.183594 183.433594 246.914062 183.765625 C 247.640625 184.097656 248.390625 184.367188 249.164062 184.582031 C 249.933594 184.796875 250.71875 184.945312 251.515625 185.039062 C 252.308594 185.128906 253.105469 185.15625 253.90625 185.121094 C 254.707031 185.085938 255.5 184.988281 256.28125 184.828125 C 257.066406 184.667969 257.835938 184.449219 258.585938 184.171875 C 259.335938 183.890625 260.058594 183.554688 260.753906 183.160156 C 261.453125 182.765625 262.113281 182.320312 262.742188 181.824219 C 263.367188 181.324219 263.953125 180.78125 264.492188 180.191406 C 265.035156 179.601562 265.527344 178.976562 265.96875 178.308594 C 266.414062 177.640625 266.800781 176.945312 267.136719 176.214844 C 267.46875 175.488281 267.742188 174.738281 267.957031 173.96875 C 268.175781 173.199219 268.328125 172.414062 268.421875 171.621094 C 268.515625 170.824219 268.542969 170.027344 268.511719 169.226562 C 268.195312 161.164062 261.566406 154.683594 253.5 154.546875 C 252.210938 154.523438 250.9375 154.664062 249.683594 154.960938 C 248.429688 155.261719 247.230469 155.714844 246.09375 156.316406 C 244.953125 156.917969 243.90625 157.652344 242.949219 158.523438 C 241.996094 159.390625 241.167969 160.363281 240.457031 161.441406 C 240.097656 161.996094 239.675781 162.496094 239.191406 162.945312 C 238.707031 163.398438 238.175781 163.78125 237.59375 164.097656 C 237.015625 164.414062 236.402344 164.65625 235.761719 164.820312 C 235.125 164.988281 234.472656 165.070312 233.8125 165.074219 L 233.601562 165.074219 C 227.28125 165.074219 223.507812 158.0625 226.957031 152.769531 C 227.863281 151.371094 228.875 150.058594 229.988281 148.824219 C 231.105469 147.585938 232.3125 146.449219 233.609375 145.40625 C 234.90625 144.363281 236.277344 143.429688 237.722656 142.605469 C 239.167969 141.78125 240.667969 141.078125 242.226562 140.492188 C 243.785156 139.90625 245.378906 139.449219 247.011719 139.121094 C 248.640625 138.789062 250.289062 138.589844 251.949219 138.519531 C 253.613281 138.453125 255.269531 138.515625 256.921875 138.710938 C 258.574219 138.90625 260.203125 139.230469 261.800781 139.6875 C 263.402344 140.140625 264.957031 140.71875 266.464844 141.421875 C 267.972656 142.125 269.417969 142.941406 270.796875 143.875 C 272.175781 144.808594 273.46875 145.84375 274.683594 146.984375 C 275.894531 148.121094 277.011719 149.347656 278.027344 150.664062 C 279.046875 151.984375 279.953125 153.371094 280.75 154.832031 C 281.546875 156.292969 282.222656 157.808594 282.777344 159.378906 C 283.332031 160.945312 283.757812 162.550781 284.058594 164.1875 C 284.359375 165.824219 284.527344 167.472656 284.5625 169.136719 Z M 284.5625 169.136719 " fill-opacity="1" fill-rule="nonzero"/></g></svg>