<svg xmlns="http://www.w3.org/2000/svg" xmlns:xlink="http://www.w3.org/1999/xlink" width="500" zoomAndPan="magnify" viewBox="0 0 375 374.999991" height="500" preserveAspectRatio="xMidYMid meet" version="1.0"><defs><filter x="0%" y="0%" width="100%" height="100%" id="ca95c979b1"><feColorMatrix values="0 0 0 0 1 0 0 0 0 1 0 0 0 0 1 0 0 0 1 0" color-interpolation-filters="sRGB"/></filter><g/><mask id="3fbadb950d"><g filter="url(#ca95c979b1)"><rect x="-37.5" width="450" fill="#000000" y="-37.499999" height="449.999989" fill-opacity="0.82"/></g></mask><clipPath id="cd1cee9ca3"><path d="M 0.859375 0.078125 L 234.519531 0.078125 L 234.519531 203 L 0.859375 203 Z M 0.859375 0.078125 " clip-rule="nonzero"/></clipPath><clipPath id="bcfa321165"><path d="M 55 242 L 59 242 L 59 245.261719 L 55 245.261719 Z M 55 242 " clip-rule="nonzero"/></clipPath><clipPath id="6c248713c3"><rect x="0" width="235" y="0" height="246"/></clipPath></defs><g mask="url(#3fbadb950d)"><g transform="matrix(1, 0, 0, 1, 107, 58)"><g clip-path="url(#6c248713c3)"><g clip-path="url(#cd1cee9ca3)"><path fill="#013453" d="M 0.863281 202.332031 L 117.628906 0.128906 L 234.347656 202.332031 Z M 0.863281 202.332031 " fill-opacity="1" fill-rule="nonzero"/></g><g clip-path="url(#bcfa321165)"><path fill="#5dcad1" d="M 56.886719 242.289062 C 57.710938 242.289062 58.375 242.953125 58.375 243.773438 C 58.375 244.597656 57.710938 245.261719 56.886719 245.261719 C 56.066406 245.261719 55.402344 244.597656 55.402344 243.773438 C 55.402344 242.953125 56.066406 242.289062 56.886719 242.289062 Z M 56.886719 242.289062 " fill-opacity="1" fill-rule="nonzero"/></g><path fill="#5dcad1" d="M 56.886719 232.015625 C 57.710938 232.015625 58.375 232.683594 58.375 233.503906 C 58.375 234.324219 57.710938 234.988281 56.886719 234.988281 C 56.066406 234.988281 55.402344 234.324219 55.402344 233.503906 C 55.402344 232.683594 56.066406 232.015625 56.886719 232.015625 Z M 56.886719 232.015625 " fill-opacity="1" fill-rule="nonzero"/><path fill="#5dcad1" d="M 56.886719 221.746094 C 57.710938 221.746094 58.375 222.414062 58.375 223.234375 C 58.375 224.054688 57.710938 224.71875 56.886719 224.71875 C 56.066406 224.71875 55.402344 224.054688 55.402344 223.234375 C 55.402344 222.410156 56.066406 221.746094 56.886719 221.746094 Z M 56.886719 221.746094 " fill-opacity="1" fill-rule="nonzero"/><path fill="#5dcad1" d="M 56.886719 211.476562 C 57.710938 211.476562 58.375 212.140625 58.375 212.960938 C 58.375 213.785156 57.710938 214.449219 56.886719 214.449219 C 56.066406 214.449219 55.402344 213.785156 55.402344 212.960938 C 55.402344 212.140625 56.066406 211.476562 56.886719 211.476562 Z M 56.886719 211.476562 " fill-opacity="1" fill-rule="nonzero"/><path fill="#5dcad1" d="M 56.886719 201.203125 C 57.710938 201.203125 58.375 201.871094 58.375 202.691406 C 58.375 203.511719 57.710938 204.179688 56.886719 204.179688 C 56.066406 204.179688 55.402344 203.511719 55.402344 202.691406 C 55.402344 201.871094 56.066406 201.203125 56.886719 201.203125 Z M 56.886719 201.203125 " fill-opacity="1" fill-rule="nonzero"/><path fill="#5dcad1" d="M 56.886719 190.933594 C 57.710938 190.933594 58.375 191.597656 58.375 192.421875 C 58.375 193.242188 57.710938 193.90625 56.886719 193.90625 C 56.066406 193.90625 55.402344 193.242188 55.402344 192.421875 C 55.402344 191.597656 56.066406 190.933594 56.886719 190.933594 Z M 56.886719 190.933594 " fill-opacity="1" fill-rule="nonzero"/><path fill="#5dcad1" d="M 56.886719 180.664062 C 57.710938 180.664062 58.375 181.328125 58.375 182.148438 C 58.375 182.972656 57.710938 183.636719 56.886719 183.636719 C 56.066406 183.636719 55.402344 182.972656 55.402344 182.148438 C 55.402344 181.328125 56.066406 180.664062 56.886719 180.664062 Z M 56.886719 180.664062 " fill-opacity="1" fill-rule="nonzero"/><path fill="#5dcad1" d="M 56.886719 170.394531 C 57.710938 170.394531 58.375 171.058594 58.375 171.878906 C 58.375 172.699219 57.710938 173.367188 56.886719 173.367188 C 56.066406 173.367188 55.402344 172.699219 55.402344 171.878906 C 55.402344 171.058594 56.066406 170.394531 56.886719 170.394531 Z M 56.886719 170.394531 " fill-opacity="1" fill-rule="nonzero"/><path fill="#5dcad1" d="M 56.886719 160.121094 C 57.710938 160.121094 58.375 160.789062 58.375 161.609375 C 58.375 162.429688 57.710938 163.097656 56.886719 163.097656 C 56.066406 163.097656 55.402344 162.429688 55.402344 161.609375 C 55.402344 160.789062 56.066406 160.121094 56.886719 160.121094 Z M 56.886719 160.121094 " fill-opacity="1" fill-rule="nonzero"/><path fill="#5dcad1" d="M 66.351562 232.015625 C 67.167969 232.015625 67.835938 232.683594 67.835938 233.503906 C 67.835938 234.324219 67.167969 234.988281 66.351562 234.988281 C 65.527344 234.988281 64.863281 234.324219 64.863281 233.503906 C 64.863281 232.683594 65.527344 232.015625 66.351562 232.015625 Z M 66.351562 232.015625 " fill-opacity="1" fill-rule="nonzero"/><path fill="#5dcad1" d="M 66.351562 221.746094 C 67.167969 221.746094 67.835938 222.414062 67.835938 223.234375 C 67.835938 224.054688 67.167969 224.71875 66.351562 224.71875 C 65.527344 224.71875 64.863281 224.054688 64.863281 223.234375 C 64.863281 222.410156 65.527344 221.746094 66.351562 221.746094 Z M 66.351562 221.746094 " fill-opacity="1" fill-rule="nonzero"/><path fill="#5dcad1" d="M 66.351562 211.476562 C 67.167969 211.476562 67.835938 212.140625 67.835938 212.960938 C 67.835938 213.785156 67.167969 214.449219 66.351562 214.449219 C 65.527344 214.449219 64.863281 213.785156 64.863281 212.960938 C 64.863281 212.140625 65.527344 211.476562 66.351562 211.476562 Z M 66.351562 211.476562 " fill-opacity="1" fill-rule="nonzero"/><path fill="#5dcad1" d="M 66.351562 201.203125 C 67.167969 201.203125 67.835938 201.871094 67.835938 202.691406 C 67.835938 203.511719 67.167969 204.179688 66.351562 204.179688 C 65.527344 204.179688 64.863281 203.511719 64.863281 202.691406 C 64.863281 201.871094 65.527344 201.203125 66.351562 201.203125 Z M 66.351562 201.203125 " fill-opacity="1" fill-rule="nonzero"/><path fill="#5dcad1" d="M 66.351562 190.933594 C 67.167969 190.933594 67.835938 191.597656 67.835938 192.421875 C 67.835938 193.242188 67.167969 193.90625 66.351562 193.90625 C 65.527344 193.90625 64.863281 193.242188 64.863281 192.421875 C 64.863281 191.597656 65.527344 190.933594 66.351562 190.933594 Z M 66.351562 190.933594 " fill-opacity="1" fill-rule="nonzero"/><path fill="#5dcad1" d="M 66.351562 180.664062 C 67.167969 180.664062 67.835938 181.328125 67.835938 182.148438 C 67.835938 182.972656 67.167969 183.636719 66.351562 183.636719 C 65.527344 183.636719 64.863281 182.972656 64.863281 182.148438 C 64.863281 181.328125 65.527344 180.664062 66.351562 180.664062 Z M 66.351562 180.664062 " fill-opacity="1" fill-rule="nonzero"/><path fill="#5dcad1" d="M 66.351562 170.394531 C 67.167969 170.394531 67.835938 171.058594 67.835938 171.878906 C 67.835938 172.699219 67.167969 173.367188 66.351562 173.367188 C 65.527344 173.367188 64.863281 172.699219 64.863281 171.878906 C 64.863281 171.058594 65.527344 170.394531 66.351562 170.394531 Z M 66.351562 170.394531 " fill-opacity="1" fill-rule="nonzero"/><path fill="#5dcad1" d="M 75.808594 232.015625 C 76.628906 232.015625 77.292969 232.683594 77.292969 233.503906 C 77.292969 233.679688 77.261719 233.847656 77.207031 234.003906 L 75.542969 234.964844 C 74.851562 234.84375 74.324219 234.234375 74.324219 233.503906 C 74.324219 232.683594 74.988281 232.019531 75.808594 232.019531 Z M 75.808594 232.015625 " fill-opacity="1" fill-rule="nonzero"/><path fill="#5dcad1" d="M 75.808594 221.746094 C 76.628906 221.746094 77.292969 222.414062 77.292969 223.234375 C 77.292969 224.054688 76.628906 224.71875 75.808594 224.71875 C 74.988281 224.71875 74.324219 224.054688 74.324219 223.234375 C 74.324219 222.410156 74.988281 221.746094 75.808594 221.746094 Z M 75.808594 221.746094 " fill-opacity="1" fill-rule="nonzero"/><path fill="#5dcad1" d="M 75.808594 211.476562 C 76.628906 211.476562 77.292969 212.140625 77.292969 212.960938 C 77.292969 213.785156 76.628906 214.449219 75.808594 214.449219 C 74.988281 214.449219 74.324219 213.785156 74.324219 212.960938 C 74.324219 212.140625 74.988281 211.476562 75.808594 211.476562 Z M 75.808594 211.476562 " fill-opacity="1" fill-rule="nonzero"/><path fill="#5dcad1" d="M 75.808594 201.203125 C 76.628906 201.203125 77.292969 201.871094 77.292969 202.691406 C 77.292969 203.511719 76.628906 204.179688 75.808594 204.179688 C 74.988281 204.179688 74.324219 203.511719 74.324219 202.691406 C 74.324219 201.871094 74.988281 201.203125 75.808594 201.203125 Z M 75.808594 201.203125 " fill-opacity="1" fill-rule="nonzero"/><path fill="#5dcad1" d="M 75.808594 190.933594 C 76.628906 190.933594 77.292969 191.597656 77.292969 192.421875 C 77.292969 193.242188 76.628906 193.90625 75.808594 193.90625 C 74.988281 193.90625 74.324219 193.242188 74.324219 192.421875 C 74.324219 191.597656 74.988281 190.933594 75.808594 190.933594 Z M 75.808594 190.933594 " fill-opacity="1" fill-rule="nonzero"/><path fill="#5dcad1" d="M 75.808594 180.664062 C 76.628906 180.664062 77.292969 181.328125 77.292969 182.148438 C 77.292969 182.972656 76.628906 183.636719 75.808594 183.636719 C 74.988281 183.636719 74.324219 182.972656 74.324219 182.148438 C 74.324219 181.328125 74.988281 180.664062 75.808594 180.664062 Z M 75.808594 180.664062 " fill-opacity="1" fill-rule="nonzero"/><path fill="#5dcad1" d="M 77.1875 171.332031 C 77.257812 171.5 77.292969 171.6875 77.292969 171.878906 C 77.292969 172.699219 76.628906 173.367188 75.804688 173.367188 C 74.988281 173.367188 74.324219 172.699219 74.324219 171.878906 C 74.324219 171.132812 74.875 170.515625 75.589844 170.410156 Z M 77.1875 171.332031 " fill-opacity="1" fill-rule="nonzero"/><path fill="#5dcad1" d="M 85.269531 221.746094 C 86.089844 221.746094 86.753906 222.414062 86.753906 223.234375 C 86.753906 224.054688 86.089844 224.71875 85.269531 224.71875 C 84.445312 224.71875 83.78125 224.054688 83.78125 223.234375 C 83.78125 222.410156 84.445312 221.746094 85.269531 221.746094 Z M 85.269531 221.746094 " fill-opacity="1" fill-rule="nonzero"/><path fill="#5dcad1" d="M 85.269531 211.476562 C 86.089844 211.476562 86.753906 212.140625 86.753906 212.960938 C 86.753906 213.785156 86.089844 214.449219 85.269531 214.449219 C 84.445312 214.449219 83.78125 213.785156 83.78125 212.960938 C 83.78125 212.140625 84.445312 211.476562 85.269531 211.476562 Z M 85.269531 211.476562 " fill-opacity="1" fill-rule="nonzero"/><path fill="#5dcad1" d="M 85.269531 201.203125 C 86.089844 201.203125 86.753906 201.871094 86.753906 202.691406 C 86.753906 203.511719 86.089844 204.179688 85.269531 204.179688 C 84.445312 204.179688 83.78125 203.511719 83.78125 202.691406 C 83.78125 201.871094 84.445312 201.203125 85.269531 201.203125 Z M 85.269531 201.203125 " fill-opacity="1" fill-rule="nonzero"/><path fill="#5dcad1" d="M 85.269531 190.933594 C 86.089844 190.933594 86.753906 191.597656 86.753906 192.421875 C 86.753906 193.242188 86.089844 193.90625 85.269531 193.90625 C 84.445312 193.90625 83.78125 193.242188 83.78125 192.421875 C 83.78125 191.597656 84.445312 190.933594 85.269531 190.933594 Z M 85.269531 190.933594 " fill-opacity="1" fill-rule="nonzero"/><path fill="#5dcad1" d="M 85.269531 180.664062 C 86.089844 180.664062 86.753906 181.328125 86.753906 182.148438 C 86.753906 182.972656 86.089844 183.636719 85.269531 183.636719 C 84.445312 183.636719 83.78125 182.972656 83.78125 182.148438 C 83.78125 181.328125 84.445312 180.664062 85.269531 180.664062 Z M 85.269531 180.664062 " fill-opacity="1" fill-rule="nonzero"/><path fill="#5dcad1" d="M 94.730469 221.746094 C 95.484375 221.746094 96.109375 222.308594 96.203125 223.039062 L 93.824219 224.414062 C 93.46875 224.140625 93.242188 223.714844 93.242188 223.234375 C 93.242188 222.410156 93.90625 221.746094 94.730469 221.746094 Z M 94.730469 221.746094 " fill-opacity="1" fill-rule="nonzero"/><path fill="#5dcad1" d="M 94.730469 211.476562 C 95.550781 211.476562 96.214844 212.140625 96.214844 212.960938 C 96.214844 213.785156 95.550781 214.449219 94.730469 214.449219 C 93.90625 214.449219 93.242188 213.785156 93.242188 212.960938 C 93.242188 212.140625 93.90625 211.476562 94.730469 211.476562 Z M 94.730469 211.476562 " fill-opacity="1" fill-rule="nonzero"/><path fill="#5dcad1" d="M 94.730469 201.203125 C 95.550781 201.203125 96.214844 201.871094 96.214844 202.691406 C 96.214844 203.511719 95.550781 204.179688 94.730469 204.179688 C 93.90625 204.179688 93.242188 203.511719 93.242188 202.691406 C 93.242188 201.871094 93.90625 201.203125 94.730469 201.203125 Z M 94.730469 201.203125 " fill-opacity="1" fill-rule="nonzero"/><path fill="#5dcad1" d="M 94.730469 190.933594 C 95.550781 190.933594 96.214844 191.597656 96.214844 192.421875 C 96.214844 193.242188 95.550781 193.90625 94.730469 193.90625 C 93.90625 193.90625 93.242188 193.242188 93.242188 192.421875 C 93.242188 191.597656 93.90625 190.933594 94.730469 190.933594 Z M 94.730469 190.933594 " fill-opacity="1" fill-rule="nonzero"/><path fill="#5dcad1" d="M 96.207031 182.3125 C 96.125 183.058594 95.496094 183.636719 94.730469 183.636719 C 93.90625 183.636719 93.242188 182.972656 93.242188 182.148438 C 93.242188 181.65625 93.480469 181.222656 93.851562 180.953125 Z M 96.207031 182.3125 " fill-opacity="1" fill-rule="nonzero"/><path fill="#5dcad1" d="M 104.191406 211.476562 C 105.007812 211.476562 105.671875 212.140625 105.671875 212.960938 C 105.671875 213.785156 105.007812 214.449219 104.191406 214.449219 C 103.367188 214.449219 102.703125 213.785156 102.703125 212.960938 C 102.703125 212.140625 103.367188 211.476562 104.191406 211.476562 Z M 104.191406 211.476562 " fill-opacity="1" fill-rule="nonzero"/><path fill="#5dcad1" d="M 104.191406 201.203125 C 105.007812 201.203125 105.671875 201.871094 105.671875 202.691406 C 105.671875 203.511719 105.007812 204.179688 104.191406 204.179688 C 103.367188 204.179688 102.703125 203.511719 102.703125 202.691406 C 102.703125 201.871094 103.367188 201.203125 104.191406 201.203125 Z M 104.191406 201.203125 " fill-opacity="1" fill-rule="nonzero"/><path fill="#5dcad1" d="M 104.191406 190.933594 C 105.007812 190.933594 105.671875 191.597656 105.671875 192.421875 C 105.671875 193.242188 105.007812 193.90625 104.191406 193.90625 C 103.367188 193.90625 102.703125 193.242188 102.703125 192.421875 C 102.703125 191.597656 103.367188 190.933594 104.191406 190.933594 Z M 104.191406 190.933594 " fill-opacity="1" fill-rule="nonzero"/><path fill="#5dcad1" d="M 113.644531 211.476562 C 114.199219 211.476562 114.679688 211.777344 114.9375 212.222656 L 112.363281 213.710938 C 112.234375 213.488281 112.160156 213.234375 112.160156 212.960938 C 112.160156 212.140625 112.828125 211.476562 113.648438 211.476562 Z M 113.644531 211.476562 " fill-opacity="1" fill-rule="nonzero"/><path fill="#5dcad1" d="M 113.644531 201.203125 C 114.46875 201.203125 115.132812 201.871094 115.132812 202.691406 C 115.132812 203.511719 114.46875 204.179688 113.644531 204.179688 C 112.828125 204.179688 112.160156 203.511719 112.160156 202.691406 C 112.160156 201.871094 112.828125 201.203125 113.644531 201.203125 Z M 113.644531 201.203125 " fill-opacity="1" fill-rule="nonzero"/><path fill="#5dcad1" d="M 114.953125 193.132812 C 114.699219 193.59375 114.210938 193.90625 113.644531 193.90625 C 112.828125 193.90625 112.160156 193.242188 112.160156 192.421875 C 112.160156 192.136719 112.238281 191.871094 112.375 191.648438 L 114.949219 193.132812 Z M 114.953125 193.132812 " fill-opacity="1" fill-rule="nonzero"/><path fill="#5dcad1" d="M 123.105469 201.203125 C 123.929688 201.203125 124.59375 201.871094 124.59375 202.691406 C 124.59375 203.511719 123.929688 204.179688 123.105469 204.179688 C 122.285156 204.179688 121.621094 203.511719 121.621094 202.691406 C 121.621094 201.871094 122.285156 201.203125 123.105469 201.203125 Z M 123.105469 201.203125 " fill-opacity="1" fill-rule="nonzero"/><path fill="#5dcad1" d="M 131.09375 202.894531 C 131.085938 202.828125 131.082031 202.761719 131.082031 202.691406 C 131.082031 202.613281 131.085938 202.535156 131.101562 202.457031 L 131.476562 202.675781 Z M 131.09375 202.894531 " fill-opacity="1" fill-rule="nonzero"/><path fill="#5dcad1" d="M 205.449219 116.417969 C 205.460938 115.632812 206.101562 115.007812 206.882812 115.015625 C 207.667969 115.027344 208.292969 115.667969 208.285156 116.449219 C 208.277344 117.234375 207.632812 117.859375 206.851562 117.851562 C 206.070312 117.84375 205.441406 117.203125 205.449219 116.417969 Z M 205.449219 116.417969 " fill-opacity="1" fill-rule="nonzero"/><path fill="#5dcad1" d="M 195.660156 116.304688 C 195.667969 115.523438 196.308594 114.894531 197.09375 114.90625 C 197.875 114.914062 198.503906 115.554688 198.492188 116.339844 C 198.484375 117.121094 197.84375 117.75 197.0625 117.738281 C 196.277344 117.730469 195.652344 117.089844 195.660156 116.304688 Z M 195.660156 116.304688 " fill-opacity="1" fill-rule="nonzero"/><path fill="#5dcad1" d="M 185.871094 116.195312 C 185.878906 115.410156 186.519531 114.78125 187.304688 114.792969 C 188.085938 114.800781 188.714844 115.441406 188.703125 116.226562 C 188.695312 117.007812 188.054688 117.636719 187.269531 117.628906 C 186.488281 117.617188 185.863281 116.976562 185.871094 116.195312 Z M 185.871094 116.195312 " fill-opacity="1" fill-rule="nonzero"/><path fill="#5dcad1" d="M 176.082031 116.082031 C 176.089844 115.296875 176.730469 114.671875 177.511719 114.679688 C 178.296875 114.6875 178.925781 115.332031 178.914062 116.113281 C 178.90625 116.898438 178.265625 117.523438 177.480469 117.515625 C 176.699219 117.507812 176.070312 116.863281 176.082031 116.082031 Z M 176.082031 116.082031 " fill-opacity="1" fill-rule="nonzero"/><path fill="#5dcad1" d="M 166.289062 115.96875 C 166.300781 115.1875 166.941406 114.558594 167.722656 114.570312 C 168.507812 114.578125 169.132812 115.21875 169.125 116.003906 C 169.117188 116.785156 168.472656 117.414062 167.691406 117.402344 C 166.90625 117.394531 166.28125 116.753906 166.289062 115.96875 Z M 166.289062 115.96875 " fill-opacity="1" fill-rule="nonzero"/><path fill="#5dcad1" d="M 156.5 115.859375 C 156.511719 115.074219 157.152344 114.449219 157.933594 114.457031 C 158.71875 114.464844 159.34375 115.105469 159.335938 115.890625 C 159.324219 116.671875 158.683594 117.300781 157.902344 117.292969 C 157.117188 117.28125 156.492188 116.640625 156.5 115.855469 Z M 156.5 115.859375 " fill-opacity="1" fill-rule="nonzero"/><path fill="#5dcad1" d="M 146.710938 115.746094 C 146.71875 114.960938 147.363281 114.335938 148.144531 114.34375 C 148.925781 114.351562 149.554688 114.996094 149.542969 115.777344 C 149.535156 116.5625 148.894531 117.1875 148.109375 117.179688 C 147.328125 117.171875 146.703125 116.53125 146.710938 115.746094 Z M 146.710938 115.746094 " fill-opacity="1" fill-rule="nonzero"/><path fill="#5dcad1" d="M 136.921875 115.632812 C 136.929688 114.851562 137.570312 114.222656 138.355469 114.234375 C 139.136719 114.242188 139.765625 114.882812 139.753906 115.667969 C 139.746094 116.449219 139.105469 117.078125 138.320312 117.066406 C 137.539062 117.058594 136.910156 116.417969 136.921875 115.632812 Z M 136.921875 115.632812 " fill-opacity="1" fill-rule="nonzero"/><path fill="#5dcad1" d="M 127.132812 115.523438 C 127.140625 114.738281 127.78125 114.113281 128.5625 114.121094 C 129.347656 114.128906 129.972656 114.769531 129.964844 115.554688 C 129.957031 116.339844 129.3125 116.964844 128.53125 116.957031 C 127.75 116.945312 127.121094 116.304688 127.132812 115.523438 Z M 127.132812 115.523438 " fill-opacity="1" fill-rule="nonzero"/><path fill="#5dcad1" d="M 195.765625 107.289062 C 195.773438 106.507812 196.414062 105.878906 197.199219 105.886719 C 197.980469 105.894531 198.605469 106.539062 198.597656 107.320312 C 198.589844 108.101562 197.949219 108.730469 197.164062 108.722656 C 196.382812 108.710938 195.753906 108.070312 195.765625 107.289062 Z M 195.765625 107.289062 " fill-opacity="1" fill-rule="nonzero"/><path fill="#5dcad1" d="M 185.972656 107.175781 C 185.984375 106.394531 186.625 105.765625 187.40625 105.773438 C 188.191406 105.78125 188.816406 106.429688 188.808594 107.207031 C 188.800781 107.992188 188.15625 108.617188 187.375 108.609375 C 186.59375 108.601562 185.964844 107.960938 185.972656 107.175781 Z M 185.972656 107.175781 " fill-opacity="1" fill-rule="nonzero"/><path fill="#5dcad1" d="M 176.183594 107.0625 C 176.191406 106.285156 176.835938 105.652344 177.617188 105.664062 C 178.398438 105.671875 179.027344 106.316406 179.015625 107.097656 C 179.007812 107.878906 178.367188 108.507812 177.582031 108.496094 C 176.800781 108.488281 176.175781 107.847656 176.183594 107.0625 Z M 176.183594 107.0625 " fill-opacity="1" fill-rule="nonzero"/><path fill="#5dcad1" d="M 166.394531 106.953125 C 166.402344 106.171875 167.042969 105.542969 167.828125 105.550781 C 168.609375 105.558594 169.238281 106.203125 169.226562 106.984375 C 169.21875 107.765625 168.578125 108.394531 167.792969 108.386719 C 167.011719 108.375 166.382812 107.734375 166.394531 106.949219 Z M 166.394531 106.953125 " fill-opacity="1" fill-rule="nonzero"/><path fill="#5dcad1" d="M 156.605469 106.839844 C 156.613281 106.0625 157.253906 105.429688 158.035156 105.4375 C 158.820312 105.449219 159.445312 106.09375 159.4375 106.871094 C 159.429688 107.65625 158.789062 108.28125 158.003906 108.273438 C 157.222656 108.265625 156.59375 107.625 156.605469 106.839844 Z M 156.605469 106.839844 " fill-opacity="1" fill-rule="nonzero"/><path fill="#5dcad1" d="M 146.816406 106.726562 C 146.824219 105.949219 147.464844 105.316406 148.246094 105.328125 C 149.03125 105.335938 149.65625 105.980469 149.648438 106.761719 C 149.640625 107.542969 148.996094 108.171875 148.214844 108.160156 C 147.433594 108.152344 146.804688 107.511719 146.816406 106.726562 Z M 146.816406 106.726562 " fill-opacity="1" fill-rule="nonzero"/><path fill="#5dcad1" d="M 137.023438 106.617188 C 137.03125 105.835938 137.675781 105.207031 138.457031 105.214844 C 139.238281 105.222656 139.867188 105.867188 139.859375 106.648438 C 139.847656 107.433594 139.207031 108.058594 138.425781 108.050781 C 137.640625 108.039062 137.015625 107.398438 137.023438 106.617188 Z M 137.023438 106.617188 " fill-opacity="1" fill-rule="nonzero"/><path fill="#5dcad1" d="M 195.867188 98.273438 C 195.875 97.488281 196.515625 96.863281 197.300781 96.871094 C 197.46875 96.875 197.628906 96.90625 197.777344 96.960938 L 198.675781 98.554688 C 198.546875 99.214844 197.964844 99.710938 197.269531 99.703125 C 196.484375 99.695312 195.859375 99.054688 195.867188 98.273438 Z M 195.867188 98.273438 " fill-opacity="1" fill-rule="nonzero"/><path fill="#5dcad1" d="M 186.078125 98.160156 C 186.085938 97.378906 186.726562 96.75 187.511719 96.761719 C 188.292969 96.769531 188.921875 97.410156 188.910156 98.195312 C 188.902344 98.972656 188.261719 99.601562 187.476562 99.589844 C 186.695312 99.582031 186.070312 98.941406 186.078125 98.160156 Z M 186.078125 98.160156 " fill-opacity="1" fill-rule="nonzero"/><path fill="#5dcad1" d="M 176.285156 98.050781 C 176.296875 97.265625 176.9375 96.640625 177.71875 96.648438 C 178.503906 96.65625 179.128906 97.296875 179.121094 98.082031 C 179.113281 98.863281 178.472656 99.488281 177.6875 99.480469 C 176.90625 99.46875 176.277344 98.828125 176.285156 98.050781 Z M 176.285156 98.050781 " fill-opacity="1" fill-rule="nonzero"/><path fill="#5dcad1" d="M 166.496094 97.9375 C 166.503906 97.152344 167.148438 96.527344 167.929688 96.535156 C 168.710938 96.546875 169.339844 97.1875 169.332031 97.96875 C 169.324219 98.75 168.679688 99.375 167.898438 99.367188 C 167.113281 99.359375 166.488281 98.71875 166.496094 97.9375 Z M 166.496094 97.9375 " fill-opacity="1" fill-rule="nonzero"/><path fill="#5dcad1" d="M 156.707031 97.824219 C 156.714844 97.042969 157.355469 96.414062 158.140625 96.425781 C 158.921875 96.433594 159.546875 97.074219 159.539062 97.859375 C 159.53125 98.636719 158.890625 99.265625 158.105469 99.253906 C 157.324219 99.246094 156.699219 98.605469 156.707031 97.824219 Z M 156.707031 97.824219 " fill-opacity="1" fill-rule="nonzero"/><path fill="#5dcad1" d="M 146.917969 97.714844 C 146.925781 96.929688 147.566406 96.304688 148.351562 96.3125 C 149.132812 96.320312 149.757812 96.960938 149.75 97.746094 C 149.742188 98.527344 149.101562 99.152344 148.316406 99.144531 C 147.535156 99.136719 146.90625 98.492188 146.917969 97.714844 Z M 146.917969 97.714844 " fill-opacity="1" fill-rule="nonzero"/><path fill="#5dcad1" d="M 138.039062 96.292969 C 138.199219 96.230469 138.375 96.199219 138.558594 96.199219 C 139.34375 96.210938 139.96875 96.851562 139.960938 97.632812 C 139.953125 98.414062 139.308594 99.039062 138.527344 99.03125 C 137.816406 99.023438 137.230469 98.492188 137.140625 97.808594 Z M 138.039062 96.292969 " fill-opacity="1" fill-rule="nonzero"/><path fill="#5dcad1" d="M 186.179688 89.144531 C 186.1875 88.359375 186.832031 87.734375 187.613281 87.742188 C 188.394531 87.75 189.023438 88.390625 189.015625 89.175781 C 189.003906 89.960938 188.363281 90.585938 187.582031 90.578125 C 186.796875 90.566406 186.171875 89.925781 186.179688 89.144531 Z M 186.179688 89.144531 " fill-opacity="1" fill-rule="nonzero"/><path fill="#5dcad1" d="M 176.390625 89.03125 C 176.398438 88.246094 177.039062 87.621094 177.824219 87.628906 C 178.605469 87.640625 179.234375 88.28125 179.222656 89.0625 C 179.214844 89.847656 178.574219 90.472656 177.789062 90.464844 C 177.007812 90.457031 176.378906 89.816406 176.390625 89.03125 Z M 176.390625 89.03125 " fill-opacity="1" fill-rule="nonzero"/><path fill="#5dcad1" d="M 166.601562 88.917969 C 166.609375 88.136719 167.25 87.507812 168.035156 87.519531 C 168.816406 87.527344 169.441406 88.167969 169.433594 88.953125 C 169.425781 89.734375 168.78125 90.363281 168 90.351562 C 167.21875 90.34375 166.589844 89.703125 166.601562 88.917969 Z M 166.601562 88.917969 " fill-opacity="1" fill-rule="nonzero"/><path fill="#5dcad1" d="M 156.808594 88.808594 C 156.820312 88.023438 157.460938 87.398438 158.242188 87.40625 C 159.027344 87.414062 159.652344 88.058594 159.644531 88.839844 C 159.632812 89.625 158.992188 90.25 158.210938 90.242188 C 157.425781 90.230469 156.800781 89.589844 156.8125 88.808594 Z M 156.808594 88.808594 " fill-opacity="1" fill-rule="nonzero"/><path fill="#5dcad1" d="M 147.019531 88.695312 C 147.03125 87.914062 147.671875 87.285156 148.453125 87.292969 C 149.238281 87.304688 149.863281 87.945312 149.855469 88.726562 C 149.84375 89.511719 149.203125 90.136719 148.421875 90.128906 C 147.636719 90.121094 147.011719 89.480469 147.019531 88.695312 Z M 147.019531 88.695312 " fill-opacity="1" fill-rule="nonzero"/><path fill="#5dcad1" d="M 186.285156 80.125 C 186.292969 79.402344 186.835938 78.816406 187.53125 78.734375 L 188.816406 81.015625 C 188.550781 81.351562 188.140625 81.5625 187.683594 81.558594 C 186.902344 81.550781 186.273438 80.90625 186.285156 80.125 Z M 186.285156 80.125 " fill-opacity="1" fill-rule="nonzero"/><path fill="#5dcad1" d="M 176.492188 80.011719 C 176.5 79.230469 177.144531 78.601562 177.925781 78.613281 C 178.710938 78.621094 179.335938 79.261719 179.328125 80.046875 C 179.316406 80.828125 178.675781 81.457031 177.894531 81.445312 C 177.109375 81.4375 176.484375 80.796875 176.492188 80.011719 Z M 176.492188 80.011719 " fill-opacity="1" fill-rule="nonzero"/><path fill="#5dcad1" d="M 166.703125 79.902344 C 166.710938 79.117188 167.351562 78.492188 168.136719 78.5 C 168.917969 78.507812 169.546875 79.148438 169.539062 79.933594 C 169.527344 80.714844 168.886719 81.34375 168.105469 81.335938 C 167.320312 81.324219 166.695312 80.683594 166.703125 79.902344 Z M 166.703125 79.902344 " fill-opacity="1" fill-rule="nonzero"/><path fill="#5dcad1" d="M 156.914062 79.789062 C 156.921875 79.007812 157.5625 78.378906 158.34375 78.386719 C 159.128906 78.398438 159.753906 79.039062 159.746094 79.820312 C 159.738281 80.605469 159.097656 81.234375 158.3125 81.222656 C 157.53125 81.214844 156.90625 80.574219 156.914062 79.789062 Z M 156.914062 79.789062 " fill-opacity="1" fill-rule="nonzero"/><path fill="#5dcad1" d="M 148.710938 78.285156 C 149.417969 78.371094 149.964844 78.980469 149.957031 79.710938 C 149.949219 80.492188 149.308594 81.121094 148.523438 81.109375 C 148.054688 81.105469 147.640625 80.871094 147.386719 80.519531 Z M 148.710938 78.285156 " fill-opacity="1" fill-rule="nonzero"/><path fill="#5dcad1" d="M 176.59375 70.996094 C 176.605469 70.214844 177.246094 69.589844 178.027344 69.597656 C 178.8125 69.605469 179.4375 70.246094 179.429688 71.027344 C 179.421875 71.8125 178.78125 72.4375 177.996094 72.429688 C 177.214844 72.417969 176.585938 71.777344 176.59375 70.996094 Z M 176.59375 70.996094 " fill-opacity="1" fill-rule="nonzero"/><path fill="#5dcad1" d="M 166.804688 70.882812 C 166.816406 70.101562 167.457031 69.476562 168.238281 69.484375 C 169.023438 69.496094 169.648438 70.136719 169.640625 70.914062 C 169.632812 71.699219 168.988281 72.324219 168.207031 72.316406 C 167.421875 72.308594 166.796875 71.667969 166.804688 70.882812 Z M 166.804688 70.882812 " fill-opacity="1" fill-rule="nonzero"/><path fill="#5dcad1" d="M 157.015625 70.769531 C 157.027344 69.992188 157.667969 69.363281 158.449219 69.375 C 159.230469 69.382812 159.859375 70.023438 159.851562 70.804688 C 159.839844 71.585938 159.199219 72.214844 158.417969 72.203125 C 157.632812 72.195312 157.007812 71.554688 157.015625 70.769531 Z M 157.015625 70.769531 " fill-opacity="1" fill-rule="nonzero"/><path fill="#5dcad1" d="M 176.699219 61.980469 C 176.703125 61.453125 176.996094 61 177.425781 60.757812 L 178.8125 63.230469 C 178.601562 63.351562 178.359375 63.417969 178.097656 63.414062 C 177.316406 63.40625 176.691406 62.761719 176.699219 61.980469 Z M 176.699219 61.980469 " fill-opacity="1" fill-rule="nonzero"/><path fill="#5dcad1" d="M 166.910156 61.867188 C 166.917969 61.085938 167.558594 60.457031 168.34375 60.46875 C 169.125 60.476562 169.753906 61.117188 169.742188 61.902344 C 169.734375 62.679688 169.09375 63.3125 168.308594 63.300781 C 167.527344 63.292969 166.898438 62.648438 166.910156 61.867188 Z M 166.910156 61.867188 " fill-opacity="1" fill-rule="nonzero"/><path fill="#5dcad1" d="M 159.230469 60.535156 C 159.667969 60.78125 159.957031 61.253906 159.953125 61.789062 C 159.945312 62.570312 159.300781 63.199219 158.519531 63.191406 C 158.25 63.1875 158 63.109375 157.785156 62.976562 Z M 159.230469 60.535156 " fill-opacity="1" fill-rule="nonzero"/><path fill="#5dcad1" d="M 167.011719 52.851562 C 167.019531 52.066406 167.664062 51.441406 168.445312 51.449219 C 169.226562 51.457031 169.855469 52.097656 169.847656 52.882812 C 169.839844 53.664062 169.195312 54.292969 168.414062 54.285156 C 167.628906 54.273438 167.003906 53.632812 167.011719 52.851562 Z M 167.011719 52.851562 " fill-opacity="1" fill-rule="nonzero"/><path fill="#5dcad1" d="M 168.710938 45.253906 C 168.644531 45.261719 168.582031 45.265625 168.515625 45.265625 C 168.441406 45.265625 168.367188 45.257812 168.292969 45.246094 L 168.503906 44.890625 Z M 168.710938 45.253906 " fill-opacity="1" fill-rule="nonzero"/></g></g></g><path stroke-linecap="butt" transform="matrix(0.970301, 0, 0, 0.970301, 0.0000045, -16.273862)" fill="none" stroke-linejoin="miter" d="M 162.896435 141.684872 L 152.976833 186.612936 L 113.717113 186.612936 L 116.837117 172.015341 L 100.677507 172.015341 L 93.592078 204.185607 L 144.188485 204.185607 L 103.088969 234.516076 L 86.933384 234.516076 L 79.562122 268.530163 L 95.717706 268.530163 L 98.978614 253.791665 L 138.379238 253.791665 L 128.455611 298.856607 L 33.361901 298.856607 L 62.979802 163.653729 L 46.115674 141.684872 Z M 162.896435 141.684872 " stroke="#ffffff" stroke-width="11.247381" stroke-opacity="1" stroke-miterlimit="4"/><g fill="#013453" fill-opacity="1"><g transform="translate(32.232194, 273.846166)"><g><path d="M 125.828125 -152.640625 L 116.203125 -109.046875 L 78.109375 -109.046875 L 81.125 -123.21875 L 65.453125 -123.21875 L 58.578125 -92 L 107.671875 -92 L 67.796875 -62.5625 L 52.109375 -62.5625 L 44.96875 -29.5625 L 60.640625 -29.5625 L 63.8125 -43.859375 L 102.03125 -43.859375 L 92.40625 -0.140625 L 0.140625 -0.140625 L 28.875 -131.328125 L 12.515625 -152.640625 Z M 125.828125 -152.640625 "/></g></g></g><path stroke-linecap="butt" transform="matrix(0.970301, 0, 0, 0.970301, 107.861217, -16.273862)" fill="none" stroke-linejoin="miter" d="M 19.474981 298.856607 C 18.343727 298.856607 17.160139 298.433896 15.932266 297.58445 C 14.796987 296.827597 13.758327 295.929841 12.816287 294.891182 C 11.962815 293.852522 11.209988 292.717243 10.545729 291.48937 C 10.356516 290.921731 10.191458 290.378246 10.050554 289.858916 C 9.909651 289.339587 9.933806 288.888696 10.123019 288.514295 L 22.735889 230.405722 L 57.458519 251.947843 L 53.774901 268.530163 L 81.834812 268.530163 L 86.226973 248.264225 L 27.836593 207.446515 L 42.152381 141.684872 L 137.531924 141.684872 C 138.759796 141.684872 139.939359 142.063299 141.074638 142.820151 C 142.209917 143.577004 143.248577 144.47476 144.190617 145.51342 C 145.044089 146.552079 145.796916 147.687358 146.461175 148.915231 C 146.839602 150.143104 146.980505 151.181763 146.883885 152.03121 L 134.979559 206.311236 L 100.256928 184.769114 L 102.950197 172.015341 L 75.312996 172.015341 L 72.056114 186.894743 L 130.305591 227.853357 L 114.854524 298.856607 Z M 19.474981 298.856607 " stroke="#ffffff" stroke-width="11.247381" stroke-opacity="1" stroke-miterlimit="4"/><g fill="#ebdada" fill-opacity="1"><g transform="translate(112.182089, 273.846166)"><g><path d="M 14.578125 -0.140625 C 13.472656 -0.140625 12.328125 -0.550781 11.140625 -1.375 C 10.035156 -2.101562 9.023438 -2.972656 8.109375 -3.984375 C 7.285156 -4.992188 6.550781 -6.09375 5.90625 -7.28125 C 5.726562 -7.832031 5.566406 -8.359375 5.421875 -8.859375 C 5.285156 -9.367188 5.3125 -9.804688 5.5 -10.171875 L 17.734375 -66.5625 L 51.421875 -45.65625 L 47.859375 -29.5625 L 75.078125 -29.5625 L 79.34375 -49.234375 L 22.6875 -88.828125 L 36.578125 -152.640625 L 129.125 -152.640625 C 130.3125 -152.640625 131.457031 -152.269531 132.5625 -151.53125 C 133.664062 -150.800781 134.675781 -149.929688 135.59375 -148.921875 C 136.414062 -147.910156 137.144531 -146.8125 137.78125 -145.625 C 138.15625 -144.4375 138.296875 -143.425781 138.203125 -142.59375 L 126.65625 -89.9375 L 92.953125 -110.828125 L 95.578125 -123.21875 L 68.75 -123.21875 L 65.59375 -108.765625 L 122.109375 -69.03125 L 107.125 -0.140625 Z M 14.578125 -0.140625 "/></g></g></g></svg>