<svg xmlns="http://www.w3.org/2000/svg" xmlns:xlink="http://www.w3.org/1999/xlink" width="500" zoomAndPan="magnify" viewBox="0 0 375 374.999991" height="500" preserveAspectRatio="xMidYMid meet" version="1.0"><defs><filter x="0%" y="0%" width="100%" height="100%" id="d995652f9f"><feColorMatrix values="0 0 0 0 1 0 0 0 0 1 0 0 0 0 1 0 0 0 1 0" color-interpolation-filters="sRGB"/></filter><g/><mask id="1bdb13f5cf"><g filter="url(#d995652f9f)"><rect x="-37.5" width="450" fill="#000000" y="-37.499999" height="449.999989" fill-opacity="0.82"/></g></mask><clipPath id="8203b7c146"><path d="M 0.539062 0.484375 L 94.289062 0.484375 L 94.289062 82 L 0.539062 82 Z M 0.539062 0.484375 " clip-rule="nonzero"/></clipPath><clipPath id="b7c776b2fb"><path d="M 22 97 L 24 97 L 24 98.734375 L 22 98.734375 Z M 22 97 " clip-rule="nonzero"/></clipPath><clipPath id="f094ec5815"><rect x="0" width="95" y="0" height="99"/></clipPath><clipPath id="90fe04c5a4"><path d="M 329.609375 159.25 L 357.359375 159.25 L 357.359375 187 L 329.609375 187 Z M 329.609375 159.25 " clip-rule="nonzero"/></clipPath></defs><g mask="url(#1bdb13f5cf)"><g transform="matrix(1, 0, 0, 1, 17, 138)"><g clip-path="url(#f094ec5815)"><g clip-path="url(#8203b7c146)"><path fill="#013453" d="M 0.539062 81.488281 L 47.445312 0.257812 L 94.335938 81.488281 Z M 0.539062 81.488281 " fill-opacity="1" fill-rule="nonzero"/></g><g clip-path="url(#b7c776b2fb)"><path fill="#5dcad1" d="M 23.042969 97.539062 C 23.375 97.539062 23.640625 97.804688 23.640625 98.136719 C 23.640625 98.464844 23.375 98.734375 23.042969 98.734375 C 22.714844 98.734375 22.445312 98.464844 22.445312 98.136719 C 22.445312 97.804688 22.714844 97.539062 23.042969 97.539062 Z M 23.042969 97.539062 " fill-opacity="1" fill-rule="nonzero"/></g><path fill="#5dcad1" d="M 23.042969 93.414062 C 23.375 93.414062 23.640625 93.679688 23.640625 94.007812 C 23.640625 94.339844 23.375 94.605469 23.042969 94.605469 C 22.714844 94.605469 22.445312 94.339844 22.445312 94.007812 C 22.445312 93.679688 22.714844 93.414062 23.042969 93.414062 Z M 23.042969 93.414062 " fill-opacity="1" fill-rule="nonzero"/><path fill="#5dcad1" d="M 23.042969 89.285156 C 23.375 89.285156 23.640625 89.554688 23.640625 89.882812 C 23.640625 90.214844 23.375 90.480469 23.042969 90.480469 C 22.714844 90.480469 22.445312 90.214844 22.445312 89.882812 C 22.445312 89.554688 22.714844 89.285156 23.042969 89.285156 Z M 23.042969 89.285156 " fill-opacity="1" fill-rule="nonzero"/><path fill="#5dcad1" d="M 23.042969 85.160156 C 23.375 85.160156 23.640625 85.429688 23.640625 85.757812 C 23.640625 86.085938 23.375 86.355469 23.042969 86.355469 C 22.714844 86.355469 22.445312 86.085938 22.445312 85.757812 C 22.445312 85.429688 22.714844 85.160156 23.042969 85.160156 Z M 23.042969 85.160156 " fill-opacity="1" fill-rule="nonzero"/><path fill="#5dcad1" d="M 23.042969 81.035156 C 23.375 81.035156 23.640625 81.300781 23.640625 81.632812 C 23.640625 81.960938 23.375 82.230469 23.042969 82.230469 C 22.714844 82.230469 22.445312 81.960938 22.445312 81.632812 C 22.445312 81.300781 22.714844 81.035156 23.042969 81.035156 Z M 23.042969 81.035156 " fill-opacity="1" fill-rule="nonzero"/><path fill="#5dcad1" d="M 23.042969 76.910156 C 23.375 76.910156 23.640625 77.175781 23.640625 77.503906 C 23.640625 77.835938 23.375 78.101562 23.042969 78.101562 C 22.714844 78.101562 22.445312 77.835938 22.445312 77.503906 C 22.445312 77.175781 22.714844 76.910156 23.042969 76.910156 Z M 23.042969 76.910156 " fill-opacity="1" fill-rule="nonzero"/><path fill="#5dcad1" d="M 23.042969 72.78125 C 23.375 72.78125 23.640625 73.050781 23.640625 73.378906 C 23.640625 73.710938 23.375 73.976562 23.042969 73.976562 C 22.714844 73.976562 22.445312 73.710938 22.445312 73.378906 C 22.445312 73.050781 22.714844 72.78125 23.042969 72.78125 Z M 23.042969 72.78125 " fill-opacity="1" fill-rule="nonzero"/><path fill="#5dcad1" d="M 23.042969 68.65625 C 23.375 68.65625 23.640625 68.925781 23.640625 69.253906 C 23.640625 69.582031 23.375 69.851562 23.042969 69.851562 C 22.714844 69.851562 22.445312 69.582031 22.445312 69.253906 C 22.445312 68.925781 22.714844 68.65625 23.042969 68.65625 Z M 23.042969 68.65625 " fill-opacity="1" fill-rule="nonzero"/><path fill="#5dcad1" d="M 23.042969 64.53125 C 23.375 64.53125 23.640625 64.796875 23.640625 65.128906 C 23.640625 65.457031 23.375 65.726562 23.042969 65.726562 C 22.714844 65.726562 22.445312 65.457031 22.445312 65.128906 C 22.445312 64.796875 22.714844 64.53125 23.042969 64.53125 Z M 23.042969 64.53125 " fill-opacity="1" fill-rule="nonzero"/><path fill="#5dcad1" d="M 26.84375 93.414062 C 27.175781 93.414062 27.441406 93.679688 27.441406 94.007812 C 27.441406 94.339844 27.175781 94.605469 26.84375 94.605469 C 26.515625 94.605469 26.25 94.339844 26.25 94.007812 C 26.25 93.679688 26.515625 93.414062 26.84375 93.414062 Z M 26.84375 93.414062 " fill-opacity="1" fill-rule="nonzero"/><path fill="#5dcad1" d="M 26.84375 89.285156 C 27.175781 89.285156 27.441406 89.554688 27.441406 89.882812 C 27.441406 90.214844 27.175781 90.480469 26.84375 90.480469 C 26.515625 90.480469 26.25 90.214844 26.25 89.882812 C 26.25 89.554688 26.515625 89.285156 26.84375 89.285156 Z M 26.84375 89.285156 " fill-opacity="1" fill-rule="nonzero"/><path fill="#5dcad1" d="M 26.84375 85.160156 C 27.175781 85.160156 27.441406 85.429688 27.441406 85.757812 C 27.441406 86.085938 27.175781 86.355469 26.84375 86.355469 C 26.515625 86.355469 26.25 86.085938 26.25 85.757812 C 26.25 85.429688 26.515625 85.160156 26.84375 85.160156 Z M 26.84375 85.160156 " fill-opacity="1" fill-rule="nonzero"/><path fill="#5dcad1" d="M 26.84375 81.035156 C 27.175781 81.035156 27.441406 81.300781 27.441406 81.632812 C 27.441406 81.960938 27.175781 82.230469 26.84375 82.230469 C 26.515625 82.230469 26.25 81.960938 26.25 81.632812 C 26.25 81.300781 26.515625 81.035156 26.84375 81.035156 Z M 26.84375 81.035156 " fill-opacity="1" fill-rule="nonzero"/><path fill="#5dcad1" d="M 26.84375 76.910156 C 27.175781 76.910156 27.441406 77.175781 27.441406 77.503906 C 27.441406 77.835938 27.175781 78.101562 26.84375 78.101562 C 26.515625 78.101562 26.25 77.835938 26.25 77.503906 C 26.25 77.175781 26.515625 76.910156 26.84375 76.910156 Z M 26.84375 76.910156 " fill-opacity="1" fill-rule="nonzero"/><path fill="#5dcad1" d="M 26.84375 72.78125 C 27.175781 72.78125 27.441406 73.050781 27.441406 73.378906 C 27.441406 73.710938 27.175781 73.976562 26.84375 73.976562 C 26.515625 73.976562 26.25 73.710938 26.25 73.378906 C 26.25 73.050781 26.515625 72.78125 26.84375 72.78125 Z M 26.84375 72.78125 " fill-opacity="1" fill-rule="nonzero"/><path fill="#5dcad1" d="M 26.84375 68.65625 C 27.175781 68.65625 27.441406 68.925781 27.441406 69.253906 C 27.441406 69.582031 27.175781 69.851562 26.84375 69.851562 C 26.515625 69.851562 26.25 69.582031 26.25 69.253906 C 26.25 68.925781 26.515625 68.65625 26.84375 68.65625 Z M 26.84375 68.65625 " fill-opacity="1" fill-rule="nonzero"/><path fill="#5dcad1" d="M 30.644531 93.414062 C 30.976562 93.414062 31.242188 93.679688 31.242188 94.007812 C 31.242188 94.082031 31.230469 94.148438 31.207031 94.210938 L 30.539062 94.597656 C 30.261719 94.546875 30.046875 94.304688 30.046875 94.011719 C 30.046875 93.679688 30.316406 93.414062 30.644531 93.414062 Z M 30.644531 93.414062 " fill-opacity="1" fill-rule="nonzero"/><path fill="#5dcad1" d="M 30.644531 89.285156 C 30.976562 89.285156 31.242188 89.554688 31.242188 89.882812 C 31.242188 90.214844 30.976562 90.480469 30.644531 90.480469 C 30.316406 90.480469 30.046875 90.214844 30.046875 89.882812 C 30.046875 89.554688 30.316406 89.285156 30.644531 89.285156 Z M 30.644531 89.285156 " fill-opacity="1" fill-rule="nonzero"/><path fill="#5dcad1" d="M 30.644531 85.160156 C 30.976562 85.160156 31.242188 85.429688 31.242188 85.757812 C 31.242188 86.085938 30.976562 86.355469 30.644531 86.355469 C 30.316406 86.355469 30.046875 86.085938 30.046875 85.757812 C 30.046875 85.429688 30.316406 85.160156 30.644531 85.160156 Z M 30.644531 85.160156 " fill-opacity="1" fill-rule="nonzero"/><path fill="#5dcad1" d="M 30.644531 81.035156 C 30.976562 81.035156 31.242188 81.300781 31.242188 81.632812 C 31.242188 81.960938 30.976562 82.230469 30.644531 82.230469 C 30.316406 82.230469 30.046875 81.960938 30.046875 81.632812 C 30.046875 81.300781 30.316406 81.035156 30.644531 81.035156 Z M 30.644531 81.035156 " fill-opacity="1" fill-rule="nonzero"/><path fill="#5dcad1" d="M 30.644531 76.910156 C 30.976562 76.910156 31.242188 77.175781 31.242188 77.503906 C 31.242188 77.835938 30.976562 78.101562 30.644531 78.101562 C 30.316406 78.101562 30.046875 77.835938 30.046875 77.503906 C 30.046875 77.175781 30.316406 76.910156 30.644531 76.910156 Z M 30.644531 76.910156 " fill-opacity="1" fill-rule="nonzero"/><path fill="#5dcad1" d="M 30.644531 72.78125 C 30.976562 72.78125 31.242188 73.050781 31.242188 73.378906 C 31.242188 73.710938 30.976562 73.976562 30.644531 73.976562 C 30.316406 73.976562 30.046875 73.710938 30.046875 73.378906 C 30.046875 73.050781 30.316406 72.78125 30.644531 72.78125 Z M 30.644531 72.78125 " fill-opacity="1" fill-rule="nonzero"/><path fill="#5dcad1" d="M 31.199219 69.035156 C 31.226562 69.101562 31.242188 69.175781 31.242188 69.253906 C 31.242188 69.582031 30.972656 69.851562 30.644531 69.851562 C 30.316406 69.851562 30.046875 69.582031 30.046875 69.253906 C 30.046875 68.953125 30.269531 68.703125 30.558594 68.664062 Z M 31.199219 69.035156 " fill-opacity="1" fill-rule="nonzero"/><path fill="#5dcad1" d="M 34.445312 89.285156 C 34.777344 89.285156 35.042969 89.554688 35.042969 89.882812 C 35.042969 90.214844 34.773438 90.480469 34.445312 90.480469 C 34.113281 90.480469 33.847656 90.214844 33.847656 89.882812 C 33.847656 89.554688 34.113281 89.285156 34.445312 89.285156 Z M 34.445312 89.285156 " fill-opacity="1" fill-rule="nonzero"/><path fill="#5dcad1" d="M 34.445312 85.160156 C 34.777344 85.160156 35.042969 85.429688 35.042969 85.757812 C 35.042969 86.085938 34.773438 86.355469 34.445312 86.355469 C 34.113281 86.355469 33.847656 86.085938 33.847656 85.757812 C 33.847656 85.429688 34.113281 85.160156 34.445312 85.160156 Z M 34.445312 85.160156 " fill-opacity="1" fill-rule="nonzero"/><path fill="#5dcad1" d="M 34.445312 81.035156 C 34.777344 81.035156 35.042969 81.300781 35.042969 81.632812 C 35.042969 81.960938 34.773438 82.230469 34.445312 82.230469 C 34.113281 82.230469 33.847656 81.960938 33.847656 81.632812 C 33.847656 81.300781 34.113281 81.035156 34.445312 81.035156 Z M 34.445312 81.035156 " fill-opacity="1" fill-rule="nonzero"/><path fill="#5dcad1" d="M 34.445312 76.910156 C 34.777344 76.910156 35.042969 77.175781 35.042969 77.503906 C 35.042969 77.835938 34.773438 78.101562 34.445312 78.101562 C 34.113281 78.101562 33.847656 77.835938 33.847656 77.503906 C 33.847656 77.175781 34.113281 76.910156 34.445312 76.910156 Z M 34.445312 76.910156 " fill-opacity="1" fill-rule="nonzero"/><path fill="#5dcad1" d="M 34.445312 72.78125 C 34.777344 72.78125 35.042969 73.050781 35.042969 73.378906 C 35.042969 73.710938 34.773438 73.976562 34.445312 73.976562 C 34.113281 73.976562 33.847656 73.710938 33.847656 73.378906 C 33.847656 73.050781 34.113281 72.78125 34.445312 72.78125 Z M 34.445312 72.78125 " fill-opacity="1" fill-rule="nonzero"/><path fill="#5dcad1" d="M 38.246094 89.285156 C 38.550781 89.285156 38.800781 89.511719 38.839844 89.804688 L 37.882812 90.359375 C 37.738281 90.25 37.648438 90.078125 37.648438 89.882812 C 37.648438 89.554688 37.914062 89.285156 38.246094 89.285156 Z M 38.246094 89.285156 " fill-opacity="1" fill-rule="nonzero"/><path fill="#5dcad1" d="M 38.246094 85.160156 C 38.574219 85.160156 38.84375 85.429688 38.84375 85.757812 C 38.84375 86.085938 38.574219 86.355469 38.246094 86.355469 C 37.914062 86.355469 37.648438 86.085938 37.648438 85.757812 C 37.648438 85.429688 37.914062 85.160156 38.246094 85.160156 Z M 38.246094 85.160156 " fill-opacity="1" fill-rule="nonzero"/><path fill="#5dcad1" d="M 38.246094 81.035156 C 38.574219 81.035156 38.84375 81.300781 38.84375 81.632812 C 38.84375 81.960938 38.574219 82.230469 38.246094 82.230469 C 37.914062 82.230469 37.648438 81.960938 37.648438 81.632812 C 37.648438 81.300781 37.914062 81.035156 38.246094 81.035156 Z M 38.246094 81.035156 " fill-opacity="1" fill-rule="nonzero"/><path fill="#5dcad1" d="M 38.246094 76.910156 C 38.574219 76.910156 38.84375 77.175781 38.84375 77.503906 C 38.84375 77.835938 38.574219 78.101562 38.246094 78.101562 C 37.914062 78.101562 37.648438 77.835938 37.648438 77.503906 C 37.648438 77.175781 37.914062 76.910156 38.246094 76.910156 Z M 38.246094 76.910156 " fill-opacity="1" fill-rule="nonzero"/><path fill="#5dcad1" d="M 38.839844 73.445312 C 38.808594 73.746094 38.554688 73.976562 38.246094 73.976562 C 37.914062 73.976562 37.648438 73.710938 37.648438 73.378906 C 37.648438 73.183594 37.746094 73.007812 37.894531 72.898438 Z M 38.839844 73.445312 " fill-opacity="1" fill-rule="nonzero"/><path fill="#5dcad1" d="M 42.046875 85.160156 C 42.375 85.160156 42.640625 85.429688 42.640625 85.757812 C 42.640625 86.085938 42.375 86.355469 42.046875 86.355469 C 41.714844 86.355469 41.449219 86.085938 41.449219 85.757812 C 41.449219 85.429688 41.714844 85.160156 42.046875 85.160156 Z M 42.046875 85.160156 " fill-opacity="1" fill-rule="nonzero"/><path fill="#5dcad1" d="M 42.046875 81.035156 C 42.375 81.035156 42.640625 81.300781 42.640625 81.632812 C 42.640625 81.960938 42.375 82.230469 42.046875 82.230469 C 41.714844 82.230469 41.449219 81.960938 41.449219 81.632812 C 41.449219 81.300781 41.714844 81.035156 42.046875 81.035156 Z M 42.046875 81.035156 " fill-opacity="1" fill-rule="nonzero"/><path fill="#5dcad1" d="M 42.046875 76.910156 C 42.375 76.910156 42.640625 77.175781 42.640625 77.503906 C 42.640625 77.835938 42.375 78.101562 42.046875 78.101562 C 41.714844 78.101562 41.449219 77.835938 41.449219 77.503906 C 41.449219 77.175781 41.714844 76.910156 42.046875 76.910156 Z M 42.046875 76.910156 " fill-opacity="1" fill-rule="nonzero"/><path fill="#5dcad1" d="M 45.84375 85.160156 C 46.066406 85.160156 46.261719 85.28125 46.363281 85.460938 L 45.328125 86.058594 C 45.277344 85.96875 45.25 85.867188 45.25 85.757812 C 45.25 85.429688 45.515625 85.160156 45.847656 85.160156 Z M 45.84375 85.160156 " fill-opacity="1" fill-rule="nonzero"/><path fill="#5dcad1" d="M 45.84375 81.035156 C 46.175781 81.035156 46.441406 81.300781 46.441406 81.632812 C 46.441406 81.960938 46.175781 82.230469 45.84375 82.230469 C 45.515625 82.230469 45.25 81.960938 45.25 81.632812 C 45.25 81.300781 45.515625 81.035156 45.84375 81.035156 Z M 45.84375 81.035156 " fill-opacity="1" fill-rule="nonzero"/><path fill="#5dcad1" d="M 46.371094 77.792969 C 46.269531 77.976562 46.070312 78.101562 45.84375 78.101562 C 45.515625 78.101562 45.25 77.835938 45.25 77.503906 C 45.25 77.390625 45.28125 77.285156 45.335938 77.195312 Z M 46.371094 77.792969 " fill-opacity="1" fill-rule="nonzero"/><path fill="#5dcad1" d="M 49.644531 81.035156 C 49.976562 81.035156 50.242188 81.300781 50.242188 81.632812 C 50.242188 81.960938 49.976562 82.230469 49.644531 82.230469 C 49.316406 82.230469 49.046875 81.960938 49.046875 81.632812 C 49.046875 81.300781 49.316406 81.035156 49.644531 81.035156 Z M 49.644531 81.035156 " fill-opacity="1" fill-rule="nonzero"/><path fill="#5dcad1" d="M 52.855469 81.710938 C 52.851562 81.6875 52.847656 81.660156 52.847656 81.632812 C 52.847656 81.601562 52.851562 81.566406 52.855469 81.539062 L 53.007812 81.625 Z M 52.855469 81.710938 " fill-opacity="1" fill-rule="nonzero"/><path fill="#5dcad1" d="M 82.726562 46.972656 C 82.730469 46.660156 82.988281 46.40625 83.300781 46.410156 C 83.617188 46.414062 83.867188 46.671875 83.863281 46.988281 C 83.859375 47.300781 83.601562 47.554688 83.289062 47.550781 C 82.972656 47.546875 82.722656 47.289062 82.726562 46.972656 Z M 82.726562 46.972656 " fill-opacity="1" fill-rule="nonzero"/><path fill="#5dcad1" d="M 78.792969 46.929688 C 78.796875 46.613281 79.054688 46.363281 79.367188 46.367188 C 79.683594 46.367188 79.933594 46.625 79.929688 46.941406 C 79.925781 47.257812 79.667969 47.507812 79.355469 47.503906 C 79.039062 47.5 78.789062 47.242188 78.792969 46.929688 Z M 78.792969 46.929688 " fill-opacity="1" fill-rule="nonzero"/><path fill="#5dcad1" d="M 74.859375 46.882812 C 74.863281 46.570312 75.121094 46.316406 75.4375 46.320312 C 75.75 46.324219 76.003906 46.582031 76 46.894531 C 75.996094 47.210938 75.738281 47.464844 75.421875 47.460938 C 75.109375 47.457031 74.855469 47.199219 74.859375 46.882812 Z M 74.859375 46.882812 " fill-opacity="1" fill-rule="nonzero"/><path fill="#5dcad1" d="M 70.925781 46.839844 C 70.929688 46.523438 71.1875 46.273438 71.503906 46.273438 C 71.816406 46.277344 72.070312 46.535156 72.066406 46.851562 C 72.0625 47.164062 71.804688 47.417969 71.488281 47.414062 C 71.175781 47.410156 70.921875 47.152344 70.925781 46.839844 Z M 70.925781 46.839844 " fill-opacity="1" fill-rule="nonzero"/><path fill="#5dcad1" d="M 66.992188 46.792969 C 66.996094 46.480469 67.253906 46.226562 67.570312 46.230469 C 67.882812 46.234375 68.136719 46.492188 68.132812 46.804688 C 68.128906 47.121094 67.871094 47.375 67.558594 47.371094 C 67.242188 47.367188 66.988281 47.109375 66.992188 46.792969 Z M 66.992188 46.792969 " fill-opacity="1" fill-rule="nonzero"/><path fill="#5dcad1" d="M 63.0625 46.75 C 63.066406 46.433594 63.324219 46.183594 63.636719 46.183594 C 63.953125 46.1875 64.203125 46.445312 64.199219 46.761719 C 64.195312 47.074219 63.9375 47.328125 63.625 47.324219 C 63.308594 47.320312 63.058594 47.0625 63.0625 46.75 Z M 63.0625 46.75 " fill-opacity="1" fill-rule="nonzero"/><path fill="#5dcad1" d="M 59.128906 46.703125 C 59.132812 46.386719 59.390625 46.136719 59.703125 46.140625 C 60.019531 46.144531 60.269531 46.402344 60.265625 46.714844 C 60.261719 47.03125 60.003906 47.28125 59.691406 47.277344 C 59.375 47.277344 59.125 47.019531 59.128906 46.703125 Z M 59.128906 46.703125 " fill-opacity="1" fill-rule="nonzero"/><path fill="#5dcad1" d="M 55.195312 46.660156 C 55.199219 46.34375 55.457031 46.09375 55.769531 46.09375 C 56.085938 46.097656 56.335938 46.355469 56.335938 46.671875 C 56.332031 46.988281 56.074219 47.238281 55.757812 47.234375 C 55.445312 47.230469 55.191406 46.972656 55.195312 46.660156 Z M 55.195312 46.660156 " fill-opacity="1" fill-rule="nonzero"/><path fill="#5dcad1" d="M 51.261719 46.613281 C 51.265625 46.300781 51.523438 46.046875 51.839844 46.050781 C 52.152344 46.054688 52.40625 46.3125 52.402344 46.625 C 52.398438 46.941406 52.140625 47.191406 51.824219 47.191406 C 51.511719 47.1875 51.257812 46.929688 51.261719 46.613281 Z M 51.261719 46.613281 " fill-opacity="1" fill-rule="nonzero"/><path fill="#5dcad1" d="M 78.835938 43.304688 C 78.835938 42.992188 79.09375 42.738281 79.410156 42.742188 C 79.722656 42.746094 79.976562 43.003906 79.972656 43.320312 C 79.96875 43.632812 79.710938 43.886719 79.398438 43.882812 C 79.082031 43.878906 78.832031 43.621094 78.835938 43.304688 Z M 78.835938 43.304688 " fill-opacity="1" fill-rule="nonzero"/><path fill="#5dcad1" d="M 74.902344 43.261719 C 74.90625 42.949219 75.164062 42.695312 75.476562 42.699219 C 75.792969 42.699219 76.042969 42.960938 76.039062 43.273438 C 76.035156 43.589844 75.777344 43.839844 75.464844 43.835938 C 75.148438 43.832031 74.898438 43.574219 74.902344 43.261719 Z M 74.902344 43.261719 " fill-opacity="1" fill-rule="nonzero"/><path fill="#5dcad1" d="M 70.96875 43.214844 C 70.972656 42.902344 71.230469 42.648438 71.542969 42.652344 C 71.859375 42.65625 72.109375 42.914062 72.105469 43.226562 C 72.101562 43.542969 71.84375 43.796875 71.53125 43.792969 C 71.214844 43.789062 70.964844 43.53125 70.96875 43.214844 Z M 70.96875 43.214844 " fill-opacity="1" fill-rule="nonzero"/><path fill="#5dcad1" d="M 67.035156 43.171875 C 67.039062 42.855469 67.296875 42.605469 67.613281 42.609375 C 67.925781 42.609375 68.175781 42.871094 68.175781 43.183594 C 68.171875 43.5 67.914062 43.75 67.597656 43.746094 C 67.285156 43.742188 67.03125 43.484375 67.035156 43.171875 Z M 67.035156 43.171875 " fill-opacity="1" fill-rule="nonzero"/><path fill="#5dcad1" d="M 63.101562 43.125 C 63.105469 42.8125 63.363281 42.558594 63.679688 42.5625 C 63.992188 42.566406 64.246094 42.824219 64.242188 43.136719 C 64.238281 43.453125 63.980469 43.707031 63.664062 43.703125 C 63.351562 43.699219 63.097656 43.441406 63.101562 43.125 Z M 63.101562 43.125 " fill-opacity="1" fill-rule="nonzero"/><path fill="#5dcad1" d="M 59.171875 43.082031 C 59.171875 42.765625 59.429688 42.515625 59.746094 42.519531 C 60.058594 42.519531 60.3125 42.78125 60.308594 43.09375 C 60.304688 43.410156 60.046875 43.660156 59.734375 43.65625 C 59.417969 43.652344 59.167969 43.394531 59.171875 43.082031 Z M 59.171875 43.082031 " fill-opacity="1" fill-rule="nonzero"/><path fill="#5dcad1" d="M 55.238281 43.035156 C 55.242188 42.722656 55.5 42.46875 55.8125 42.472656 C 56.128906 42.476562 56.378906 42.734375 56.375 43.046875 C 56.371094 43.363281 56.113281 43.613281 55.800781 43.613281 C 55.484375 43.609375 55.234375 43.351562 55.238281 43.035156 Z M 55.238281 43.035156 " fill-opacity="1" fill-rule="nonzero"/><path fill="#5dcad1" d="M 78.875 39.683594 C 78.878906 39.371094 79.136719 39.117188 79.453125 39.121094 C 79.519531 39.121094 79.582031 39.132812 79.644531 39.15625 L 80.003906 39.796875 C 79.953125 40.0625 79.71875 40.261719 79.4375 40.257812 C 79.125 40.253906 78.871094 39.996094 78.875 39.683594 Z M 78.875 39.683594 " fill-opacity="1" fill-rule="nonzero"/><path fill="#5dcad1" d="M 74.941406 39.640625 C 74.945312 39.324219 75.203125 39.074219 75.519531 39.078125 C 75.832031 39.082031 76.085938 39.335938 76.082031 39.652344 C 76.078125 39.964844 75.820312 40.21875 75.503906 40.214844 C 75.191406 40.210938 74.9375 39.953125 74.941406 39.640625 Z M 74.941406 39.640625 " fill-opacity="1" fill-rule="nonzero"/><path fill="#5dcad1" d="M 71.007812 39.59375 C 71.011719 39.28125 71.269531 39.027344 71.585938 39.03125 C 71.898438 39.035156 72.152344 39.292969 72.148438 39.605469 C 72.144531 39.921875 71.886719 40.171875 71.574219 40.167969 C 71.257812 40.164062 71.007812 39.90625 71.007812 39.59375 Z M 71.007812 39.59375 " fill-opacity="1" fill-rule="nonzero"/><path fill="#5dcad1" d="M 67.078125 39.550781 C 67.082031 39.234375 67.339844 38.984375 67.652344 38.988281 C 67.96875 38.988281 68.21875 39.246094 68.214844 39.5625 C 68.210938 39.875 67.953125 40.128906 67.640625 40.125 C 67.324219 40.121094 67.074219 39.863281 67.078125 39.550781 Z M 67.078125 39.550781 " fill-opacity="1" fill-rule="nonzero"/><path fill="#5dcad1" d="M 63.144531 39.503906 C 63.148438 39.191406 63.40625 38.9375 63.71875 38.941406 C 64.035156 38.945312 64.285156 39.203125 64.28125 39.515625 C 64.277344 39.832031 64.019531 40.082031 63.707031 40.078125 C 63.390625 40.074219 63.140625 39.816406 63.144531 39.503906 Z M 63.144531 39.503906 " fill-opacity="1" fill-rule="nonzero"/><path fill="#5dcad1" d="M 59.210938 39.460938 C 59.214844 39.144531 59.472656 38.894531 59.785156 38.898438 C 60.101562 38.898438 60.351562 39.15625 60.347656 39.472656 C 60.347656 39.785156 60.089844 40.039062 59.773438 40.035156 C 59.460938 40.03125 59.207031 39.773438 59.210938 39.460938 Z M 59.210938 39.460938 " fill-opacity="1" fill-rule="nonzero"/><path fill="#5dcad1" d="M 55.644531 38.890625 C 55.710938 38.863281 55.78125 38.851562 55.855469 38.851562 C 56.167969 38.855469 56.421875 39.113281 56.417969 39.425781 C 56.414062 39.742188 56.15625 39.992188 55.839844 39.988281 C 55.554688 39.984375 55.320312 39.773438 55.285156 39.496094 L 55.644531 38.886719 Z M 55.644531 38.890625 " fill-opacity="1" fill-rule="nonzero"/><path fill="#5dcad1" d="M 74.984375 36.015625 C 74.988281 35.703125 75.246094 35.449219 75.558594 35.453125 C 75.875 35.457031 76.125 35.714844 76.121094 36.03125 C 76.117188 36.34375 75.859375 36.597656 75.546875 36.59375 C 75.234375 36.589844 74.980469 36.332031 74.984375 36.015625 Z M 74.984375 36.015625 " fill-opacity="1" fill-rule="nonzero"/><path fill="#5dcad1" d="M 71.050781 35.972656 C 71.054688 35.65625 71.3125 35.40625 71.625 35.410156 C 71.941406 35.410156 72.191406 35.667969 72.191406 35.984375 C 72.1875 36.300781 71.929688 36.550781 71.613281 36.546875 C 71.300781 36.542969 71.046875 36.285156 71.050781 35.972656 Z M 71.050781 35.972656 " fill-opacity="1" fill-rule="nonzero"/><path fill="#5dcad1" d="M 67.117188 35.925781 C 67.121094 35.613281 67.378906 35.359375 67.695312 35.363281 C 68.007812 35.367188 68.261719 35.625 68.257812 35.9375 C 68.253906 36.253906 67.996094 36.507812 67.679688 36.503906 C 67.367188 36.5 67.113281 36.242188 67.117188 35.925781 Z M 67.117188 35.925781 " fill-opacity="1" fill-rule="nonzero"/><path fill="#5dcad1" d="M 63.1875 35.882812 C 63.1875 35.566406 63.445312 35.316406 63.761719 35.320312 C 64.074219 35.324219 64.328125 35.578125 64.324219 35.894531 C 64.320312 36.210938 64.0625 36.460938 63.75 36.457031 C 63.433594 36.453125 63.183594 36.195312 63.1875 35.882812 Z M 63.1875 35.882812 " fill-opacity="1" fill-rule="nonzero"/><path fill="#5dcad1" d="M 59.253906 35.835938 C 59.257812 35.523438 59.515625 35.269531 59.828125 35.273438 C 60.144531 35.277344 60.394531 35.535156 60.390625 35.851562 C 60.386719 36.164062 60.128906 36.417969 59.816406 36.414062 C 59.5 36.410156 59.25 36.152344 59.253906 35.835938 Z M 59.253906 35.835938 " fill-opacity="1" fill-rule="nonzero"/><path fill="#5dcad1" d="M 75.027344 32.394531 C 75.027344 32.105469 75.246094 31.867188 75.527344 31.835938 L 76.042969 32.75 C 75.9375 32.886719 75.773438 32.972656 75.589844 32.96875 C 75.273438 32.964844 75.023438 32.707031 75.027344 32.394531 Z M 75.027344 32.394531 " fill-opacity="1" fill-rule="nonzero"/><path fill="#5dcad1" d="M 71.09375 32.347656 C 71.097656 32.035156 71.355469 31.78125 71.667969 31.785156 C 71.984375 31.789062 72.234375 32.046875 72.230469 32.363281 C 72.226562 32.675781 71.96875 32.929688 71.65625 32.925781 C 71.339844 32.921875 71.089844 32.664062 71.09375 32.347656 Z M 71.09375 32.347656 " fill-opacity="1" fill-rule="nonzero"/><path fill="#5dcad1" d="M 67.160156 32.304688 C 67.164062 31.988281 67.421875 31.738281 67.734375 31.742188 C 68.050781 31.746094 68.300781 32 68.296875 32.316406 C 68.292969 32.632812 68.035156 32.882812 67.722656 32.878906 C 67.40625 32.875 67.15625 32.617188 67.160156 32.304688 Z M 67.160156 32.304688 " fill-opacity="1" fill-rule="nonzero"/><path fill="#5dcad1" d="M 63.226562 32.257812 C 63.230469 31.945312 63.488281 31.691406 63.800781 31.695312 C 64.117188 31.699219 64.367188 31.957031 64.363281 32.273438 C 64.363281 32.585938 64.105469 32.839844 63.789062 32.835938 C 63.476562 32.832031 63.222656 32.574219 63.226562 32.257812 Z M 63.226562 32.257812 " fill-opacity="1" fill-rule="nonzero"/><path fill="#5dcad1" d="M 59.929688 31.65625 C 60.214844 31.6875 60.4375 31.933594 60.433594 32.226562 C 60.429688 32.542969 60.171875 32.792969 59.855469 32.789062 C 59.667969 32.789062 59.503906 32.695312 59.398438 32.550781 Z M 59.929688 31.65625 " fill-opacity="1" fill-rule="nonzero"/><path fill="#5dcad1" d="M 71.132812 28.726562 C 71.136719 28.414062 71.394531 28.160156 71.710938 28.164062 C 72.023438 28.167969 72.277344 28.425781 72.273438 28.738281 C 72.269531 29.054688 72.011719 29.304688 71.695312 29.300781 C 71.382812 29.296875 71.128906 29.039062 71.132812 28.726562 Z M 71.132812 28.726562 " fill-opacity="1" fill-rule="nonzero"/><path fill="#5dcad1" d="M 67.199219 28.679688 C 67.203125 28.367188 67.460938 28.117188 67.777344 28.121094 C 68.089844 28.125 68.34375 28.378906 68.339844 28.695312 C 68.335938 29.007812 68.078125 29.261719 67.765625 29.257812 C 67.449219 29.253906 67.195312 28.996094 67.199219 28.679688 Z M 67.199219 28.679688 " fill-opacity="1" fill-rule="nonzero"/><path fill="#5dcad1" d="M 63.269531 28.636719 C 63.273438 28.324219 63.53125 28.070312 63.84375 28.074219 C 64.160156 28.078125 64.410156 28.335938 64.40625 28.648438 C 64.402344 28.964844 64.144531 29.214844 63.832031 29.210938 C 63.515625 29.207031 63.265625 28.949219 63.269531 28.636719 Z M 63.269531 28.636719 " fill-opacity="1" fill-rule="nonzero"/><path fill="#5dcad1" d="M 71.175781 25.105469 C 71.175781 24.894531 71.292969 24.710938 71.46875 24.613281 L 72.023438 25.605469 C 71.941406 25.65625 71.84375 25.679688 71.738281 25.679688 C 71.421875 25.675781 71.171875 25.417969 71.175781 25.105469 Z M 71.175781 25.105469 " fill-opacity="1" fill-rule="nonzero"/><path fill="#5dcad1" d="M 67.242188 25.058594 C 67.246094 24.746094 67.503906 24.492188 67.816406 24.496094 C 68.132812 24.5 68.382812 24.757812 68.382812 25.074219 C 68.378906 25.386719 68.121094 25.640625 67.804688 25.636719 C 67.492188 25.632812 67.238281 25.371094 67.242188 25.058594 Z M 67.242188 25.058594 " fill-opacity="1" fill-rule="nonzero"/><path fill="#5dcad1" d="M 64.15625 24.523438 C 64.332031 24.625 64.449219 24.8125 64.449219 25.027344 C 64.445312 25.339844 64.1875 25.59375 63.871094 25.589844 C 63.765625 25.589844 63.664062 25.558594 63.578125 25.503906 Z M 64.15625 24.523438 " fill-opacity="1" fill-rule="nonzero"/><path fill="#5dcad1" d="M 67.285156 21.4375 C 67.289062 21.121094 67.546875 20.871094 67.859375 20.875 C 68.175781 20.878906 68.425781 21.136719 68.421875 21.449219 C 68.417969 21.765625 68.160156 22.015625 67.847656 22.011719 C 67.53125 22.007812 67.28125 21.75 67.285156 21.4375 Z M 67.285156 21.4375 " fill-opacity="1" fill-rule="nonzero"/><path fill="#5dcad1" d="M 67.964844 18.386719 C 67.941406 18.390625 67.914062 18.390625 67.886719 18.390625 C 67.859375 18.390625 67.828125 18.386719 67.796875 18.382812 L 67.882812 18.238281 Z M 67.964844 18.386719 " fill-opacity="1" fill-rule="nonzero"/></g></g></g><g fill="#ebdada" fill-opacity="1"><g transform="translate(70.665438, 204.59835)"><g><path d="M 35.75 0 L 23.796875 0 L 11.484375 -23.75 L 11.28125 -23.75 C 11.351562 -23.03125 11.421875 -22.160156 11.484375 -21.140625 C 11.546875 -20.128906 11.597656 -19.097656 11.640625 -18.046875 C 11.691406 -16.992188 11.71875 -16.046875 11.71875 -15.203125 L 11.71875 0 L 3.640625 0 L 3.640625 -33.71875 L 15.546875 -33.71875 L 27.8125 -10.28125 L 27.953125 -10.28125 C 27.910156 -11.019531 27.863281 -11.878906 27.8125 -12.859375 C 27.769531 -13.835938 27.726562 -14.828125 27.6875 -15.828125 C 27.644531 -16.828125 27.625 -17.707031 27.625 -18.46875 L 27.625 -33.71875 L 35.75 -33.71875 Z M 35.75 0 "/></g></g></g><g fill="#ebdada" fill-opacity="1"><g transform="translate(115.441587, 204.59835)"><g><path d="M 14.875 -26.59375 C 17.414062 -26.59375 19.609375 -26.148438 21.453125 -25.265625 C 23.296875 -24.378906 24.71875 -23.050781 25.71875 -21.28125 C 26.71875 -19.519531 27.21875 -17.304688 27.21875 -14.640625 L 27.21875 -10.625 L 11.09375 -10.625 C 11.164062 -9.257812 11.675781 -8.140625 12.625 -7.265625 C 13.570312 -6.390625 14.96875 -5.953125 16.8125 -5.953125 C 18.445312 -5.953125 19.941406 -6.113281 21.296875 -6.4375 C 22.660156 -6.757812 24.066406 -7.257812 25.515625 -7.9375 L 25.515625 -1.453125 C 24.253906 -0.796875 22.875 -0.3125 21.375 0 C 19.882812 0.3125 18.003906 0.46875 15.734375 0.46875 C 13.097656 0.46875 10.742188 0 8.671875 -0.9375 C 6.597656 -1.882812 4.960938 -3.335938 3.765625 -5.296875 C 2.578125 -7.265625 1.984375 -9.796875 1.984375 -12.890625 C 1.984375 -16.023438 2.519531 -18.601562 3.59375 -20.625 C 4.675781 -22.644531 6.1875 -24.144531 8.125 -25.125 C 10.0625 -26.101562 12.3125 -26.59375 14.875 -26.59375 Z M 15.203125 -20.453125 C 14.140625 -20.453125 13.25 -20.117188 12.53125 -19.453125 C 11.820312 -18.785156 11.40625 -17.738281 11.28125 -16.3125 L 19.03125 -16.3125 C 19.007812 -17.070312 18.851562 -17.765625 18.5625 -18.390625 C 18.269531 -19.023438 17.84375 -19.523438 17.28125 -19.890625 C 16.71875 -20.265625 16.023438 -20.453125 15.203125 -20.453125 Z M 15.203125 -20.453125 "/></g></g></g><g fill="#ebdada" fill-opacity="1"><g transform="translate(150.024455, 204.59835)"><g><path d="M 8.65625 -13.328125 L 0.671875 -26.125 L 10.90625 -26.125 L 14.875 -18.796875 L 18.9375 -26.125 L 29.203125 -26.125 L 21.015625 -13.328125 L 29.515625 0 L 19.28125 0 L 14.875 -7.9375 L 10.5 0 L 0.234375 0 Z M 8.65625 -13.328125 "/></g></g></g><g fill="#ebdada" fill-opacity="1"><g transform="translate(185.160804, 204.59835)"><g><path d="M 15.90625 -6.671875 C 16.726562 -6.671875 17.476562 -6.753906 18.15625 -6.921875 C 18.832031 -7.085938 19.535156 -7.300781 20.265625 -7.5625 L 20.265625 -0.984375 C 19.285156 -0.554688 18.242188 -0.207031 17.140625 0.0625 C 16.046875 0.332031 14.644531 0.46875 12.9375 0.46875 C 11.25 0.46875 9.757812 0.203125 8.46875 -0.328125 C 7.175781 -0.859375 6.171875 -1.78125 5.453125 -3.09375 C 4.734375 -4.414062 4.375 -6.253906 4.375 -8.609375 L 4.375 -19.375 L 1.21875 -19.375 L 1.21875 -23.046875 L 5.234375 -25.875 L 7.5625 -31.359375 L 13.46875 -31.359375 L 13.46875 -26.125 L 19.875 -26.125 L 19.875 -19.375 L 13.46875 -19.375 L 13.46875 -9.203125 C 13.46875 -8.359375 13.679688 -7.722656 14.109375 -7.296875 C 14.546875 -6.878906 15.144531 -6.671875 15.90625 -6.671875 Z M 15.90625 -6.671875 "/></g></g></g><g fill="#ebdada" fill-opacity="1"><g transform="translate(212.271676, 204.59835)"><g><path d="M 12.609375 0 L 3.640625 0 L 3.640625 -33.71875 L 23.578125 -33.71875 L 23.578125 -26.40625 L 12.609375 -26.40625 L 12.609375 -19.96875 L 22.71875 -19.96875 L 22.71875 -12.65625 L 12.609375 -12.65625 Z M 12.609375 0 "/></g></g></g><g fill="#ebdada" fill-opacity="1"><g transform="translate(243.118547, 204.59835)"><g><path d="M 12.125 0 L 3.109375 0 L 3.109375 -35.890625 L 12.125 -35.890625 Z M 12.125 0 "/></g></g></g><g fill="#ebdada" fill-opacity="1"><g transform="translate(263.772137, 204.59835)"><g><path d="M 28.0625 -13.125 C 28.0625 -10.9375 27.757812 -9 27.15625 -7.3125 C 26.5625 -5.625 25.695312 -4.203125 24.5625 -3.046875 C 23.425781 -1.890625 22.050781 -1.015625 20.4375 -0.421875 C 18.820312 0.171875 17 0.46875 14.96875 0.46875 C 13.070312 0.46875 11.335938 0.171875 9.765625 -0.421875 C 8.191406 -1.015625 6.816406 -1.890625 5.640625 -3.046875 C 4.472656 -4.203125 3.570312 -5.625 2.9375 -7.3125 C 2.300781 -9 1.984375 -10.9375 1.984375 -13.125 C 1.984375 -16.007812 2.507812 -18.453125 3.5625 -20.453125 C 4.613281 -22.453125 6.117188 -23.972656 8.078125 -25.015625 C 10.046875 -26.066406 12.390625 -26.59375 15.109375 -26.59375 C 17.609375 -26.59375 19.832031 -26.066406 21.78125 -25.015625 C 23.738281 -23.972656 25.273438 -22.453125 26.390625 -20.453125 C 27.503906 -18.453125 28.0625 -16.007812 28.0625 -13.125 Z M 11.140625 -13.125 C 11.140625 -11.632812 11.269531 -10.375 11.53125 -9.34375 C 11.789062 -8.320312 12.207031 -7.546875 12.78125 -7.015625 C 13.363281 -6.492188 14.125 -6.234375 15.0625 -6.234375 C 16 -6.234375 16.742188 -6.492188 17.296875 -7.015625 C 17.847656 -7.546875 18.25 -8.320312 18.5 -9.34375 C 18.757812 -10.375 18.890625 -11.632812 18.890625 -13.125 C 18.890625 -14.613281 18.757812 -15.859375 18.5 -16.859375 C 18.25 -17.859375 17.84375 -18.609375 17.28125 -19.109375 C 16.71875 -19.617188 15.960938 -19.875 15.015625 -19.875 C 13.648438 -19.875 12.660156 -19.304688 12.046875 -18.171875 C 11.441406 -17.035156 11.140625 -15.351562 11.140625 -13.125 Z M 11.140625 -13.125 "/></g></g></g><g fill="#ebdada" fill-opacity="1"><g transform="translate(299.254421, 204.59835)"><g><path d="M 25.59375 0 L 22.859375 -11.4375 C 22.722656 -12.019531 22.582031 -12.679688 22.4375 -13.421875 C 22.300781 -14.171875 22.164062 -14.921875 22.03125 -15.671875 C 21.90625 -16.429688 21.796875 -17.125 21.703125 -17.75 C 21.609375 -18.382812 21.539062 -18.878906 21.5 -19.234375 L 21.359375 -19.234375 C 21.304688 -18.878906 21.226562 -18.382812 21.125 -17.75 C 21.019531 -17.113281 20.894531 -16.410156 20.75 -15.640625 C 20.613281 -14.867188 20.460938 -14.085938 20.296875 -13.296875 C 20.140625 -12.503906 19.984375 -11.769531 19.828125 -11.09375 L 17.1875 0 L 7.703125 0 L 0.578125 -26.125 L 9.453125 -26.125 L 11.578125 -16.09375 C 11.734375 -15.351562 11.890625 -14.472656 12.046875 -13.453125 C 12.210938 -12.429688 12.359375 -11.394531 12.484375 -10.34375 C 12.617188 -9.289062 12.707031 -8.347656 12.75 -7.515625 L 12.890625 -7.515625 C 12.921875 -8.148438 12.992188 -8.878906 13.109375 -9.703125 C 13.222656 -10.523438 13.351562 -11.34375 13.5 -12.15625 C 13.644531 -12.96875 13.78125 -13.6875 13.90625 -14.3125 C 14.03125 -14.9375 14.113281 -15.363281 14.15625 -15.59375 L 16.578125 -26.125 L 26.546875 -26.125 L 28.765625 -15.453125 C 28.898438 -14.847656 29.054688 -14.082031 29.234375 -13.15625 C 29.410156 -12.226562 29.578125 -11.257812 29.734375 -10.25 C 29.898438 -9.238281 30.019531 -8.328125 30.09375 -7.515625 L 30.234375 -7.515625 C 30.296875 -8.359375 30.390625 -9.316406 30.515625 -10.390625 C 30.640625 -11.472656 30.78125 -12.523438 30.9375 -13.546875 C 31.101562 -14.566406 31.257812 -15.414062 31.40625 -16.09375 L 33.71875 -26.125 L 42.421875 -26.125 L 35.234375 0 Z M 25.59375 0 "/></g></g></g><g clip-path="url(#90fe04c5a4)"><path fill="#5dcad1" d="M 342.664062 186.488281 C 342.148438 185.058594 341.484375 183.699219 340.667969 182.414062 C 339.855469 181.132812 338.910156 179.949219 337.835938 178.875 C 336.757812 177.800781 335.578125 176.855469 334.292969 176.039062 C 333.011719 175.226562 331.652344 174.5625 330.222656 174.046875 C 330.039062 173.980469 329.890625 173.867188 329.777344 173.707031 C 329.667969 173.550781 329.609375 173.371094 329.609375 173.175781 C 329.609375 172.984375 329.667969 172.804688 329.777344 172.644531 C 329.890625 172.488281 330.039062 172.375 330.222656 172.308594 C 331.652344 171.792969 333.011719 171.128906 334.292969 170.316406 C 335.578125 169.5 336.757812 168.554688 337.835938 167.480469 C 338.910156 166.402344 339.855469 165.222656 340.667969 163.941406 C 341.484375 162.65625 342.148438 161.296875 342.664062 159.867188 C 342.730469 159.683594 342.84375 159.535156 343 159.421875 C 343.160156 159.3125 343.335938 159.253906 343.53125 159.253906 C 343.726562 159.253906 343.90625 159.3125 344.0625 159.421875 C 344.222656 159.535156 344.335938 159.683594 344.402344 159.867188 C 344.917969 161.296875 345.582031 162.65625 346.398438 163.9375 C 347.210938 165.222656 348.15625 166.402344 349.234375 167.476562 C 350.308594 168.554688 351.488281 169.496094 352.773438 170.3125 C 354.058594 171.125 355.417969 171.789062 356.847656 172.304688 C 357.03125 172.371094 357.179688 172.484375 357.292969 172.640625 C 357.402344 172.800781 357.460938 172.980469 357.460938 173.171875 C 357.460938 173.367188 357.402344 173.546875 357.292969 173.703125 C 357.179688 173.863281 357.03125 173.976562 356.847656 174.042969 C 355.417969 174.558594 354.058594 175.222656 352.773438 176.035156 C 351.488281 176.851562 350.308594 177.796875 349.234375 178.871094 C 348.160156 179.945312 347.214844 181.125 346.398438 182.410156 C 345.585938 183.695312 344.921875 185.054688 344.40625 186.484375 C 344.339844 186.671875 344.230469 186.820312 344.070312 186.933594 C 343.910156 187.046875 343.730469 187.101562 343.535156 187.105469 C 343.339844 187.105469 343.164062 187.046875 343.003906 186.933594 C 342.84375 186.824219 342.730469 186.671875 342.664062 186.488281 Z M 342.664062 186.488281 " fill-opacity="1" fill-rule="nonzero"/></g></svg>